<?xml version="1.0" encoding="UTF-8"?>
<svg xmlns="http://www.w3.org/2000/svg" xmlns:xlink="http://www.w3.org/1999/xlink" width="432" height="324" viewBox="0 0 432 324">
<defs>
<g>
<g id="glyph-0-0">
<path d="M 0.4375 0 L 0.4375 -9.84375 L 8.25 -9.84375 L 8.25 0 Z M 7.015625 -1.234375 L 7.015625 -8.609375 L 1.671875 -8.609375 L 1.671875 -1.234375 Z M 7.015625 -1.234375 "/>
</g>
<g id="glyph-0-1">
<path d="M 1.6875 -2.4375 C 1.769531 -1.75 2.09375 -1.273438 2.65625 -1.015625 C 2.9375 -0.878906 3.265625 -0.8125 3.640625 -0.8125 C 4.359375 -0.8125 4.890625 -1.039062 5.234375 -1.5 C 5.578125 -1.957031 5.75 -2.460938 5.75 -3.015625 C 5.75 -3.679688 5.539062 -4.195312 5.125 -4.5625 C 4.71875 -4.9375 4.234375 -5.125 3.671875 -5.125 C 3.253906 -5.125 2.894531 -5.039062 2.59375 -4.875 C 2.300781 -4.71875 2.046875 -4.492188 1.828125 -4.203125 L 0.796875 -4.265625 L 1.515625 -9.4375 L 6.5 -9.4375 L 6.5 -8.265625 L 2.421875 -8.265625 L 2.015625 -5.59375 C 2.234375 -5.769531 2.445312 -5.898438 2.65625 -5.984375 C 3.007812 -6.128906 3.421875 -6.203125 3.890625 -6.203125 C 4.773438 -6.203125 5.519531 -5.914062 6.125 -5.34375 C 6.738281 -4.78125 7.046875 -4.0625 7.046875 -3.1875 C 7.046875 -2.28125 6.765625 -1.484375 6.203125 -0.796875 C 5.640625 -0.109375 4.75 0.234375 3.53125 0.234375 C 2.738281 0.234375 2.039062 0.015625 1.4375 -0.421875 C 0.84375 -0.859375 0.507812 -1.53125 0.4375 -2.4375 Z M 1.6875 -2.4375 "/>
</g>
<g id="glyph-0-2">
<path d="M 3.71875 -9.59375 C 4.957031 -9.59375 5.851562 -9.082031 6.40625 -8.0625 C 6.832031 -7.269531 7.046875 -6.1875 7.046875 -4.8125 C 7.046875 -3.507812 6.851562 -2.429688 6.46875 -1.578125 C 5.90625 -0.347656 4.984375 0.265625 3.703125 0.265625 C 2.546875 0.265625 1.6875 -0.234375 1.125 -1.234375 C 0.65625 -2.066406 0.421875 -3.191406 0.421875 -4.609375 C 0.421875 -5.691406 0.5625 -6.625 0.84375 -7.40625 C 1.375 -8.863281 2.332031 -9.59375 3.71875 -9.59375 Z M 3.703125 -0.84375 C 4.328125 -0.84375 4.820312 -1.117188 5.1875 -1.671875 C 5.5625 -2.222656 5.75 -3.253906 5.75 -4.765625 C 5.75 -5.847656 5.613281 -6.738281 5.34375 -7.4375 C 5.070312 -8.144531 4.550781 -8.5 3.78125 -8.5 C 3.070312 -8.5 2.550781 -8.164062 2.21875 -7.5 C 1.894531 -6.832031 1.734375 -5.851562 1.734375 -4.5625 C 1.734375 -3.582031 1.835938 -2.796875 2.046875 -2.203125 C 2.367188 -1.296875 2.921875 -0.84375 3.703125 -0.84375 Z M 3.703125 -0.84375 "/>
</g>
<g id="glyph-0-3">
<path d="M 1.171875 -1.453125 L 2.578125 -1.453125 L 2.578125 0 L 1.171875 0 Z M 1.171875 -1.453125 "/>
</g>
<g id="glyph-0-4">
<path d="M 0.421875 0 C 0.472656 -0.820312 0.644531 -1.539062 0.9375 -2.15625 C 1.238281 -2.769531 1.816406 -3.328125 2.671875 -3.828125 L 3.96875 -4.5625 C 4.539062 -4.90625 4.941406 -5.191406 5.171875 -5.421875 C 5.546875 -5.796875 5.734375 -6.222656 5.734375 -6.703125 C 5.734375 -7.253906 5.5625 -7.691406 5.21875 -8.015625 C 4.882812 -8.347656 4.441406 -8.515625 3.890625 -8.515625 C 3.054688 -8.515625 2.484375 -8.203125 2.171875 -7.578125 C 2.003906 -7.242188 1.910156 -6.78125 1.890625 -6.1875 L 0.65625 -6.1875 C 0.675781 -7.019531 0.832031 -7.703125 1.125 -8.234375 C 1.644531 -9.160156 2.566406 -9.625 3.890625 -9.625 C 4.992188 -9.625 5.796875 -9.328125 6.296875 -8.734375 C 6.804688 -8.140625 7.0625 -7.476562 7.0625 -6.75 C 7.0625 -5.976562 6.789062 -5.320312 6.25 -4.78125 C 5.9375 -4.46875 5.375 -4.082031 4.5625 -3.625 L 3.65625 -3.125 C 3.21875 -2.882812 2.875 -2.65625 2.625 -2.4375 C 2.175781 -2.039062 1.894531 -1.609375 1.78125 -1.140625 L 7.015625 -1.140625 L 7.015625 0 Z M 0.421875 0 "/>
</g>
<g id="glyph-0-5">
<path d="M 7.171875 -9.4375 L 7.171875 -8.375 C 6.867188 -8.082031 6.457031 -7.5625 5.9375 -6.8125 C 5.425781 -6.070312 4.976562 -5.273438 4.59375 -4.421875 C 4.195312 -3.585938 3.898438 -2.828125 3.703125 -2.140625 C 3.578125 -1.691406 3.410156 -0.976562 3.203125 0 L 1.875 0 C 2.175781 -1.832031 2.84375 -3.65625 3.875 -5.46875 C 4.488281 -6.53125 5.132812 -7.445312 5.8125 -8.21875 L 0.5 -8.21875 L 0.5 -9.4375 Z M 7.171875 -9.4375 "/>
</g>
<g id="glyph-0-6">
<path d="M 4.015625 -9.625 C 5.085938 -9.625 5.832031 -9.347656 6.25 -8.796875 C 6.675781 -8.242188 6.890625 -7.671875 6.890625 -7.078125 L 5.6875 -7.078125 C 5.625 -7.460938 5.515625 -7.757812 5.359375 -7.96875 C 5.066406 -8.375 4.625 -8.578125 4.03125 -8.578125 C 3.351562 -8.578125 2.816406 -8.265625 2.421875 -7.640625 C 2.023438 -7.015625 1.804688 -6.125 1.765625 -4.96875 C 2.035156 -5.375 2.382812 -5.675781 2.8125 -5.875 C 3.1875 -6.050781 3.613281 -6.140625 4.09375 -6.140625 C 4.894531 -6.140625 5.59375 -5.882812 6.1875 -5.375 C 6.789062 -4.863281 7.09375 -4.097656 7.09375 -3.078125 C 7.09375 -2.203125 6.804688 -1.425781 6.234375 -0.75 C 5.671875 -0.0820312 4.863281 0.25 3.8125 0.25 C 2.914062 0.25 2.140625 -0.0859375 1.484375 -0.765625 C 0.835938 -1.453125 0.515625 -2.601562 0.515625 -4.21875 C 0.515625 -5.40625 0.660156 -6.414062 0.953125 -7.25 C 1.503906 -8.832031 2.523438 -9.625 4.015625 -9.625 Z M 3.921875 -0.828125 C 4.554688 -0.828125 5.03125 -1.039062 5.34375 -1.46875 C 5.664062 -1.894531 5.828125 -2.394531 5.828125 -2.96875 C 5.828125 -3.46875 5.6875 -3.9375 5.40625 -4.375 C 5.125 -4.820312 4.609375 -5.046875 3.859375 -5.046875 C 3.347656 -5.046875 2.894531 -4.875 2.5 -4.53125 C 2.113281 -4.1875 1.921875 -3.664062 1.921875 -2.96875 C 1.921875 -2.363281 2.097656 -1.851562 2.453125 -1.4375 C 2.804688 -1.03125 3.296875 -0.828125 3.921875 -0.828125 Z M 3.921875 -0.828125 "/>
</g>
<g id="glyph-0-7">
<path d="M 3.734375 -5.578125 C 4.265625 -5.578125 4.675781 -5.722656 4.96875 -6.015625 C 5.269531 -6.316406 5.421875 -6.671875 5.421875 -7.078125 C 5.421875 -7.429688 5.273438 -7.757812 4.984375 -8.0625 C 4.703125 -8.363281 4.269531 -8.515625 3.6875 -8.515625 C 3.101562 -8.515625 2.679688 -8.363281 2.421875 -8.0625 C 2.171875 -7.757812 2.046875 -7.410156 2.046875 -7.015625 C 2.046875 -6.566406 2.210938 -6.210938 2.546875 -5.953125 C 2.878906 -5.703125 3.273438 -5.578125 3.734375 -5.578125 Z M 3.8125 -0.828125 C 4.363281 -0.828125 4.820312 -0.976562 5.1875 -1.28125 C 5.5625 -1.582031 5.75 -2.03125 5.75 -2.625 C 5.75 -3.25 5.554688 -3.71875 5.171875 -4.03125 C 4.796875 -4.351562 4.3125 -4.515625 3.71875 -4.515625 C 3.144531 -4.515625 2.675781 -4.347656 2.3125 -4.015625 C 1.945312 -3.691406 1.765625 -3.242188 1.765625 -2.671875 C 1.765625 -2.171875 1.929688 -1.738281 2.265625 -1.375 C 2.597656 -1.007812 3.113281 -0.828125 3.8125 -0.828125 Z M 2.09375 -5.109375 C 1.757812 -5.253906 1.5 -5.421875 1.3125 -5.609375 C 0.957031 -5.972656 0.78125 -6.4375 0.78125 -7 C 0.78125 -7.71875 1.035156 -8.332031 1.546875 -8.84375 C 2.066406 -9.363281 2.804688 -9.625 3.765625 -9.625 C 4.679688 -9.625 5.398438 -9.378906 5.921875 -8.890625 C 6.441406 -8.410156 6.703125 -7.84375 6.703125 -7.1875 C 6.703125 -6.59375 6.550781 -6.109375 6.25 -5.734375 C 6.082031 -5.523438 5.816406 -5.320312 5.453125 -5.125 C 5.859375 -4.9375 6.171875 -4.726562 6.390625 -4.5 C 6.816406 -4.050781 7.03125 -3.46875 7.03125 -2.75 C 7.03125 -1.90625 6.742188 -1.1875 6.171875 -0.59375 C 5.609375 -0.0078125 4.8125 0.28125 3.78125 0.28125 C 2.84375 0.28125 2.050781 0.0234375 1.40625 -0.484375 C 0.757812 -0.992188 0.4375 -1.726562 0.4375 -2.6875 C 0.4375 -3.257812 0.570312 -3.75 0.84375 -4.15625 C 1.125 -4.570312 1.539062 -4.890625 2.09375 -5.109375 Z M 2.09375 -5.109375 "/>
</g>
<g id="glyph-1-0">
<path d="M 0.515625 0 L 0.515625 -11.484375 L 9.625 -11.484375 L 9.625 0 Z M 8.1875 -1.4375 L 8.1875 -10.046875 L 1.953125 -10.046875 L 1.953125 -1.4375 Z M 8.1875 -1.4375 "/>
</g>
<g id="glyph-1-1">
<path d="M 0.921875 -11.515625 L 2.296875 -11.515625 L 2.296875 -7.359375 C 2.597656 -7.753906 2.960938 -8.054688 3.390625 -8.265625 C 3.816406 -8.484375 4.28125 -8.59375 4.78125 -8.59375 C 5.820312 -8.59375 6.664062 -8.234375 7.3125 -7.515625 C 7.96875 -6.796875 8.296875 -5.738281 8.296875 -4.34375 C 8.296875 -3.019531 7.972656 -1.921875 7.328125 -1.046875 C 6.691406 -0.171875 5.804688 0.265625 4.671875 0.265625 C 4.035156 0.265625 3.5 0.109375 3.0625 -0.203125 C 2.800781 -0.378906 2.519531 -0.671875 2.21875 -1.078125 L 2.21875 0 L 0.921875 0 Z M 4.578125 -0.984375 C 5.335938 -0.984375 5.90625 -1.285156 6.28125 -1.890625 C 6.664062 -2.492188 6.859375 -3.289062 6.859375 -4.28125 C 6.859375 -5.15625 6.664062 -5.878906 6.28125 -6.453125 C 5.90625 -7.035156 5.351562 -7.328125 4.625 -7.328125 C 3.976562 -7.328125 3.414062 -7.085938 2.9375 -6.609375 C 2.457031 -6.140625 2.21875 -5.363281 2.21875 -4.28125 C 2.21875 -3.488281 2.316406 -2.847656 2.515625 -2.359375 C 2.878906 -1.441406 3.566406 -0.984375 4.578125 -0.984375 Z M 4.578125 -0.984375 "/>
</g>
<g id="glyph-1-2">
<path d="M 4.359375 -0.90625 C 5.285156 -0.90625 5.921875 -1.257812 6.265625 -1.96875 C 6.617188 -2.675781 6.796875 -3.460938 6.796875 -4.328125 C 6.796875 -5.109375 6.671875 -5.742188 6.421875 -6.234375 C 6.023438 -7.003906 5.34375 -7.390625 4.375 -7.390625 C 3.507812 -7.390625 2.878906 -7.0625 2.484375 -6.40625 C 2.097656 -5.75 1.90625 -4.957031 1.90625 -4.03125 C 1.90625 -3.132812 2.097656 -2.390625 2.484375 -1.796875 C 2.878906 -1.203125 3.503906 -0.90625 4.359375 -0.90625 Z M 4.40625 -8.609375 C 5.488281 -8.609375 6.398438 -8.25 7.140625 -7.53125 C 7.890625 -6.8125 8.265625 -5.753906 8.265625 -4.359375 C 8.265625 -3.015625 7.9375 -1.898438 7.28125 -1.015625 C 6.625 -0.128906 5.601562 0.3125 4.21875 0.3125 C 3.070312 0.3125 2.160156 -0.078125 1.484375 -0.859375 C 0.804688 -1.640625 0.46875 -2.6875 0.46875 -4 C 0.46875 -5.40625 0.820312 -6.523438 1.53125 -7.359375 C 2.25 -8.191406 3.207031 -8.609375 4.40625 -8.609375 Z M 4.359375 -8.578125 Z M 4.359375 -8.578125 "/>
</g>
<g id="glyph-1-3">
<path d="M 1.921875 -4.09375 C 1.921875 -3.195312 2.109375 -2.445312 2.484375 -1.84375 C 2.867188 -1.238281 3.484375 -0.9375 4.328125 -0.9375 C 4.972656 -0.9375 5.503906 -1.210938 5.921875 -1.765625 C 6.347656 -2.328125 6.5625 -3.132812 6.5625 -4.1875 C 6.5625 -5.238281 6.34375 -6.019531 5.90625 -6.53125 C 5.476562 -7.039062 4.945312 -7.296875 4.3125 -7.296875 C 3.601562 -7.296875 3.023438 -7.023438 2.578125 -6.484375 C 2.140625 -5.941406 1.921875 -5.144531 1.921875 -4.09375 Z M 4.046875 -8.515625 C 4.679688 -8.515625 5.21875 -8.378906 5.65625 -8.109375 C 5.90625 -7.953125 6.1875 -7.679688 6.5 -7.296875 L 6.5 -11.515625 L 7.859375 -11.515625 L 7.859375 0 L 6.59375 0 L 6.59375 -1.171875 C 6.257812 -0.648438 5.867188 -0.273438 5.421875 -0.046875 C 4.972656 0.179688 4.460938 0.296875 3.890625 0.296875 C 2.953125 0.296875 2.140625 -0.09375 1.453125 -0.875 C 0.773438 -1.664062 0.4375 -2.710938 0.4375 -4.015625 C 0.4375 -5.234375 0.75 -6.285156 1.375 -7.171875 C 2 -8.066406 2.890625 -8.515625 4.046875 -8.515625 Z M 4.046875 -8.515625 "/>
</g>
<g id="glyph-1-4">
<path d="M 6.265625 -8.375 L 7.8125 -8.375 C 7.613281 -7.832031 7.175781 -6.609375 6.5 -4.703125 C 5.988281 -3.265625 5.5625 -2.09375 5.21875 -1.1875 C 4.40625 0.957031 3.832031 2.265625 3.5 2.734375 C 3.164062 3.203125 2.59375 3.4375 1.78125 3.4375 C 1.582031 3.4375 1.425781 3.425781 1.3125 3.40625 C 1.207031 3.394531 1.078125 3.367188 0.921875 3.328125 L 0.921875 2.046875 C 1.171875 2.109375 1.347656 2.144531 1.453125 2.15625 C 1.566406 2.175781 1.664062 2.1875 1.75 2.1875 C 2.007812 2.1875 2.195312 2.144531 2.3125 2.0625 C 2.4375 1.976562 2.539062 1.875 2.625 1.75 C 2.65625 1.707031 2.75 1.492188 2.90625 1.109375 C 3.070312 0.722656 3.191406 0.4375 3.265625 0.25 L 0.171875 -8.375 L 1.765625 -8.375 L 4 -1.5625 Z M 4 -8.578125 Z M 4 -8.578125 "/>
</g>
<g id="glyph-1-5">
</g>
<g id="glyph-1-6">
<path d="M 1.03125 -8.375 L 2.421875 -8.375 L 2.421875 -7.1875 C 2.753906 -7.59375 3.054688 -7.890625 3.328125 -8.078125 C 3.796875 -8.398438 4.320312 -8.5625 4.90625 -8.5625 C 5.570312 -8.5625 6.109375 -8.394531 6.515625 -8.0625 C 6.742188 -7.875 6.953125 -7.597656 7.140625 -7.234375 C 7.453125 -7.679688 7.816406 -8.015625 8.234375 -8.234375 C 8.660156 -8.453125 9.140625 -8.5625 9.671875 -8.5625 C 10.796875 -8.5625 11.5625 -8.15625 11.96875 -7.34375 C 12.1875 -6.90625 12.296875 -6.316406 12.296875 -5.578125 L 12.296875 0 L 10.828125 0 L 10.828125 -5.8125 C 10.828125 -6.375 10.6875 -6.757812 10.40625 -6.96875 C 10.132812 -7.175781 9.796875 -7.28125 9.390625 -7.28125 C 8.835938 -7.28125 8.363281 -7.09375 7.96875 -6.71875 C 7.570312 -6.351562 7.375 -5.738281 7.375 -4.875 L 7.375 0 L 5.9375 0 L 5.9375 -5.46875 C 5.9375 -6.03125 5.867188 -6.441406 5.734375 -6.703125 C 5.523438 -7.097656 5.128906 -7.296875 4.546875 -7.296875 C 4.015625 -7.296875 3.53125 -7.085938 3.09375 -6.671875 C 2.65625 -6.265625 2.4375 -5.519531 2.4375 -4.4375 L 2.4375 0 L 1.03125 0 Z M 1.03125 -8.375 "/>
</g>
<g id="glyph-1-7">
<path d="M 2.109375 -2.234375 C 2.109375 -1.828125 2.253906 -1.503906 2.546875 -1.265625 C 2.847656 -1.035156 3.203125 -0.921875 3.609375 -0.921875 C 4.109375 -0.921875 4.585938 -1.035156 5.046875 -1.265625 C 5.828125 -1.640625 6.21875 -2.257812 6.21875 -3.125 L 6.21875 -4.265625 C 6.050781 -4.148438 5.832031 -4.054688 5.5625 -3.984375 C 5.289062 -3.910156 5.023438 -3.859375 4.765625 -3.828125 L 3.90625 -3.71875 C 3.394531 -3.65625 3.015625 -3.550781 2.765625 -3.40625 C 2.328125 -3.15625 2.109375 -2.765625 2.109375 -2.234375 Z M 5.515625 -5.078125 C 5.835938 -5.117188 6.054688 -5.253906 6.171875 -5.484375 C 6.234375 -5.609375 6.265625 -5.785156 6.265625 -6.015625 C 6.265625 -6.492188 6.09375 -6.84375 5.75 -7.0625 C 5.40625 -7.28125 4.914062 -7.390625 4.28125 -7.390625 C 3.550781 -7.390625 3.03125 -7.191406 2.71875 -6.796875 C 2.550781 -6.578125 2.441406 -6.25 2.390625 -5.8125 L 1.078125 -5.8125 C 1.097656 -6.84375 1.429688 -7.5625 2.078125 -7.96875 C 2.722656 -8.375 3.46875 -8.578125 4.3125 -8.578125 C 5.300781 -8.578125 6.101562 -8.390625 6.71875 -8.015625 C 7.320312 -7.640625 7.625 -7.054688 7.625 -6.265625 L 7.625 -1.4375 C 7.625 -1.289062 7.65625 -1.171875 7.71875 -1.078125 C 7.78125 -0.992188 7.90625 -0.953125 8.09375 -0.953125 C 8.15625 -0.953125 8.222656 -0.957031 8.296875 -0.96875 C 8.378906 -0.976562 8.46875 -0.988281 8.5625 -1 L 8.5625 0.046875 C 8.34375 0.109375 8.175781 0.144531 8.0625 0.15625 C 7.945312 0.175781 7.789062 0.1875 7.59375 0.1875 C 7.101562 0.1875 6.75 0.0078125 6.53125 -0.34375 C 6.414062 -0.519531 6.335938 -0.773438 6.296875 -1.109375 C 6.003906 -0.734375 5.585938 -0.40625 5.046875 -0.125 C 4.515625 0.144531 3.925781 0.28125 3.28125 0.28125 C 2.507812 0.28125 1.875 0.046875 1.375 -0.421875 C 0.882812 -0.898438 0.640625 -1.492188 0.640625 -2.203125 C 0.640625 -2.972656 0.878906 -3.570312 1.359375 -4 C 1.847656 -4.425781 2.488281 -4.691406 3.28125 -4.796875 Z M 4.359375 -8.578125 Z M 4.359375 -8.578125 "/>
</g>
<g id="glyph-1-8">
<path d="M 1.875 -2.625 C 1.914062 -2.15625 2.03125 -1.796875 2.21875 -1.546875 C 2.570312 -1.097656 3.1875 -0.875 4.0625 -0.875 C 4.582031 -0.875 5.039062 -0.984375 5.4375 -1.203125 C 5.832031 -1.429688 6.03125 -1.785156 6.03125 -2.265625 C 6.03125 -2.617188 5.875 -2.890625 5.5625 -3.078125 C 5.351562 -3.191406 4.953125 -3.328125 4.359375 -3.484375 L 3.234375 -3.765625 C 2.523438 -3.941406 2 -4.140625 1.65625 -4.359375 C 1.050781 -4.734375 0.75 -5.257812 0.75 -5.9375 C 0.75 -6.726562 1.035156 -7.367188 1.609375 -7.859375 C 2.179688 -8.347656 2.945312 -8.59375 3.90625 -8.59375 C 5.164062 -8.59375 6.078125 -8.222656 6.640625 -7.484375 C 6.984375 -7.015625 7.148438 -6.507812 7.140625 -5.96875 L 5.8125 -5.96875 C 5.789062 -6.28125 5.679688 -6.566406 5.484375 -6.828125 C 5.160156 -7.203125 4.597656 -7.390625 3.796875 -7.390625 C 3.265625 -7.390625 2.863281 -7.285156 2.59375 -7.078125 C 2.320312 -6.878906 2.1875 -6.613281 2.1875 -6.28125 C 2.1875 -5.914062 2.363281 -5.625 2.71875 -5.40625 C 2.925781 -5.269531 3.234375 -5.15625 3.640625 -5.0625 L 4.578125 -4.828125 C 5.585938 -4.585938 6.265625 -4.351562 6.609375 -4.125 C 7.148438 -3.757812 7.421875 -3.191406 7.421875 -2.421875 C 7.421875 -1.679688 7.140625 -1.035156 6.578125 -0.484375 C 6.015625 0.0546875 5.15625 0.328125 4 0.328125 C 2.75 0.328125 1.863281 0.046875 1.34375 -0.515625 C 0.832031 -1.085938 0.554688 -1.789062 0.515625 -2.625 Z M 3.953125 -8.578125 Z M 3.953125 -8.578125 "/>
</g>
<g id="glyph-1-9">
<path d="M 4.734375 -11.671875 C 3.921875 -10.078125 3.390625 -8.90625 3.140625 -8.15625 C 2.773438 -7.019531 2.59375 -5.703125 2.59375 -4.203125 C 2.59375 -2.691406 2.800781 -1.3125 3.21875 -0.0625 C 3.476562 0.707031 3.992188 1.816406 4.765625 3.265625 L 3.8125 3.265625 C 3.050781 2.078125 2.578125 1.316406 2.390625 0.984375 C 2.210938 0.660156 2.019531 0.21875 1.8125 -0.34375 C 1.519531 -1.113281 1.316406 -1.9375 1.203125 -2.8125 C 1.140625 -3.269531 1.109375 -3.703125 1.109375 -4.109375 C 1.109375 -5.648438 1.351562 -7.023438 1.84375 -8.234375 C 2.144531 -8.992188 2.785156 -10.140625 3.765625 -11.671875 Z M 4.734375 -11.671875 "/>
</g>
<g id="glyph-1-10">
<path d="M 3.984375 -8.515625 C 4.640625 -8.515625 5.210938 -8.351562 5.703125 -8.03125 C 5.972656 -7.851562 6.242188 -7.585938 6.515625 -7.234375 L 6.515625 -8.296875 L 7.8125 -8.296875 L 7.8125 -0.6875 C 7.8125 0.382812 7.65625 1.226562 7.34375 1.84375 C 6.757812 2.976562 5.660156 3.546875 4.046875 3.546875 C 3.140625 3.546875 2.378906 3.34375 1.765625 2.9375 C 1.148438 2.53125 0.804688 1.898438 0.734375 1.046875 L 2.171875 1.046875 C 2.234375 1.421875 2.367188 1.707031 2.578125 1.90625 C 2.890625 2.21875 3.390625 2.375 4.078125 2.375 C 5.148438 2.375 5.851562 1.992188 6.1875 1.234375 C 6.382812 0.785156 6.476562 -0.015625 6.46875 -1.171875 C 6.1875 -0.742188 5.847656 -0.421875 5.453125 -0.203125 C 5.054688 0.00390625 4.53125 0.109375 3.875 0.109375 C 2.96875 0.109375 2.175781 -0.210938 1.5 -0.859375 C 0.820312 -1.503906 0.484375 -2.570312 0.484375 -4.0625 C 0.484375 -5.457031 0.820312 -6.546875 1.5 -7.328125 C 2.1875 -8.117188 3.015625 -8.515625 3.984375 -8.515625 Z M 6.515625 -4.21875 C 6.515625 -5.257812 6.300781 -6.03125 5.875 -6.53125 C 5.445312 -7.03125 4.90625 -7.28125 4.25 -7.28125 C 3.257812 -7.28125 2.582031 -6.816406 2.21875 -5.890625 C 2.019531 -5.390625 1.921875 -4.738281 1.921875 -3.9375 C 1.921875 -3 2.113281 -2.28125 2.5 -1.78125 C 2.882812 -1.289062 3.398438 -1.046875 4.046875 -1.046875 C 5.054688 -1.046875 5.765625 -1.503906 6.171875 -2.421875 C 6.398438 -2.929688 6.515625 -3.53125 6.515625 -4.21875 Z M 4.15625 -8.578125 Z M 4.15625 -8.578125 "/>
</g>
<g id="glyph-1-11">
<path d="M 0.5625 3.265625 C 1.382812 1.648438 1.914062 0.472656 2.15625 -0.265625 C 2.519531 -1.390625 2.703125 -2.703125 2.703125 -4.203125 C 2.703125 -5.710938 2.492188 -7.09375 2.078125 -8.34375 C 1.816406 -9.113281 1.300781 -10.222656 0.53125 -11.671875 L 1.484375 -11.671875 C 2.285156 -10.390625 2.769531 -9.597656 2.9375 -9.296875 C 3.101562 -8.992188 3.285156 -8.582031 3.484375 -8.0625 C 3.734375 -7.40625 3.910156 -6.757812 4.015625 -6.125 C 4.128906 -5.488281 4.1875 -4.878906 4.1875 -4.296875 C 4.1875 -2.753906 3.941406 -1.378906 3.453125 -0.171875 C 3.140625 0.609375 2.5 1.753906 1.53125 3.265625 Z M 0.5625 3.265625 "/>
</g>
<g id="glyph-2-0">
<path d="M 0 -0.515625 L -11.484375 -0.515625 L -11.484375 -9.625 L 0 -9.625 Z M -1.4375 -8.1875 L -10.046875 -8.1875 L -10.046875 -1.953125 L -1.4375 -1.953125 Z M -1.4375 -8.1875 "/>
</g>
<g id="glyph-2-1">
<path d="M -11.515625 -1.03125 L -11.515625 -2.4375 L -7.234375 -2.4375 C -7.660156 -2.769531 -7.957031 -3.070312 -8.125 -3.34375 C -8.425781 -3.789062 -8.578125 -4.351562 -8.578125 -5.03125 C -8.578125 -6.25 -8.148438 -7.070312 -7.296875 -7.5 C -6.835938 -7.738281 -6.195312 -7.859375 -5.375 -7.859375 L 0 -7.859375 L 0 -6.40625 L -5.28125 -6.40625 C -5.894531 -6.40625 -6.34375 -6.328125 -6.625 -6.171875 C -7.082031 -5.921875 -7.3125 -5.441406 -7.3125 -4.734375 C -7.3125 -4.148438 -7.109375 -3.617188 -6.703125 -3.140625 C -6.304688 -2.671875 -5.550781 -2.4375 -4.4375 -2.4375 L 0 -2.4375 L 0 -1.03125 Z M -11.515625 -1.03125 "/>
</g>
<g id="glyph-2-2">
<path d="M -8.5625 -4.515625 C -8.5625 -5.109375 -8.421875 -5.679688 -8.140625 -6.234375 C -7.859375 -6.796875 -7.5 -7.222656 -7.0625 -7.515625 C -6.632812 -7.796875 -6.140625 -7.984375 -5.578125 -8.078125 C -5.191406 -8.160156 -4.578125 -8.203125 -3.734375 -8.203125 L -3.734375 -2.078125 C -2.890625 -2.097656 -2.207031 -2.296875 -1.6875 -2.671875 C -1.175781 -3.046875 -0.921875 -3.628906 -0.921875 -4.421875 C -0.921875 -5.148438 -1.164062 -5.734375 -1.65625 -6.171875 C -1.9375 -6.421875 -2.257812 -6.597656 -2.625 -6.703125 L -2.625 -8.09375 C -2.320312 -8.050781 -1.976562 -7.925781 -1.59375 -7.71875 C -1.21875 -7.519531 -0.910156 -7.289062 -0.671875 -7.03125 C -0.253906 -6.601562 0.0234375 -6.078125 0.171875 -5.453125 C 0.253906 -5.109375 0.296875 -4.722656 0.296875 -4.296875 C 0.296875 -3.253906 -0.0820312 -2.367188 -0.84375 -1.640625 C -1.601562 -0.921875 -2.664062 -0.5625 -4.03125 -0.5625 C -5.375 -0.5625 -6.460938 -0.925781 -7.296875 -1.65625 C -8.140625 -2.382812 -8.5625 -3.335938 -8.5625 -4.515625 Z M -4.859375 -6.765625 C -5.460938 -6.703125 -5.945312 -6.566406 -6.3125 -6.359375 C -6.988281 -5.972656 -7.328125 -5.332031 -7.328125 -4.4375 C -7.328125 -3.789062 -7.09375 -3.25 -6.625 -2.8125 C -6.164062 -2.375 -5.578125 -2.140625 -4.859375 -2.109375 Z M -8.578125 -4.390625 Z M -8.578125 -4.390625 "/>
</g>
<g id="glyph-2-3">
<path d="M -2.234375 -2.109375 C -1.828125 -2.109375 -1.503906 -2.253906 -1.265625 -2.546875 C -1.035156 -2.847656 -0.921875 -3.203125 -0.921875 -3.609375 C -0.921875 -4.109375 -1.035156 -4.585938 -1.265625 -5.046875 C -1.640625 -5.828125 -2.257812 -6.21875 -3.125 -6.21875 L -4.265625 -6.21875 C -4.148438 -6.050781 -4.054688 -5.832031 -3.984375 -5.5625 C -3.910156 -5.289062 -3.859375 -5.023438 -3.828125 -4.765625 L -3.71875 -3.90625 C -3.65625 -3.394531 -3.550781 -3.015625 -3.40625 -2.765625 C -3.15625 -2.328125 -2.765625 -2.109375 -2.234375 -2.109375 Z M -5.078125 -5.515625 C -5.117188 -5.835938 -5.253906 -6.054688 -5.484375 -6.171875 C -5.609375 -6.234375 -5.785156 -6.265625 -6.015625 -6.265625 C -6.492188 -6.265625 -6.84375 -6.09375 -7.0625 -5.75 C -7.28125 -5.40625 -7.390625 -4.914062 -7.390625 -4.28125 C -7.390625 -3.550781 -7.191406 -3.03125 -6.796875 -2.71875 C -6.578125 -2.550781 -6.25 -2.441406 -5.8125 -2.390625 L -5.8125 -1.078125 C -6.84375 -1.097656 -7.5625 -1.429688 -7.96875 -2.078125 C -8.375 -2.722656 -8.578125 -3.46875 -8.578125 -4.3125 C -8.578125 -5.300781 -8.390625 -6.101562 -8.015625 -6.71875 C -7.640625 -7.320312 -7.054688 -7.625 -6.265625 -7.625 L -1.4375 -7.625 C -1.289062 -7.625 -1.171875 -7.65625 -1.078125 -7.71875 C -0.992188 -7.78125 -0.953125 -7.90625 -0.953125 -8.09375 C -0.953125 -8.15625 -0.957031 -8.222656 -0.96875 -8.296875 C -0.976562 -8.378906 -0.988281 -8.46875 -1 -8.5625 L 0.046875 -8.5625 C 0.109375 -8.34375 0.144531 -8.175781 0.15625 -8.0625 C 0.175781 -7.945312 0.1875 -7.789062 0.1875 -7.59375 C 0.1875 -7.101562 0.0078125 -6.75 -0.34375 -6.53125 C -0.519531 -6.414062 -0.773438 -6.335938 -1.109375 -6.296875 C -0.734375 -6.003906 -0.40625 -5.585938 -0.125 -5.046875 C 0.144531 -4.515625 0.28125 -3.925781 0.28125 -3.28125 C 0.28125 -2.507812 0.046875 -1.875 -0.421875 -1.375 C -0.898438 -0.882812 -1.492188 -0.640625 -2.203125 -0.640625 C -2.972656 -0.640625 -3.570312 -0.878906 -4 -1.359375 C -4.425781 -1.847656 -4.691406 -2.488281 -4.796875 -3.28125 Z M -8.578125 -4.359375 Z M -8.578125 -4.359375 "/>
</g>
<g id="glyph-2-4">
<path d="M -4.09375 -1.921875 C -3.195312 -1.921875 -2.445312 -2.109375 -1.84375 -2.484375 C -1.238281 -2.867188 -0.9375 -3.484375 -0.9375 -4.328125 C -0.9375 -4.972656 -1.210938 -5.503906 -1.765625 -5.921875 C -2.328125 -6.347656 -3.132812 -6.5625 -4.1875 -6.5625 C -5.238281 -6.5625 -6.019531 -6.34375 -6.53125 -5.90625 C -7.039062 -5.476562 -7.296875 -4.945312 -7.296875 -4.3125 C -7.296875 -3.601562 -7.023438 -3.023438 -6.484375 -2.578125 C -5.941406 -2.140625 -5.144531 -1.921875 -4.09375 -1.921875 Z M -8.515625 -4.046875 C -8.515625 -4.679688 -8.378906 -5.21875 -8.109375 -5.65625 C -7.953125 -5.90625 -7.679688 -6.1875 -7.296875 -6.5 L -11.515625 -6.5 L -11.515625 -7.859375 L 0 -7.859375 L 0 -6.59375 L -1.171875 -6.59375 C -0.648438 -6.257812 -0.273438 -5.867188 -0.046875 -5.421875 C 0.179688 -4.972656 0.296875 -4.460938 0.296875 -3.890625 C 0.296875 -2.953125 -0.09375 -2.140625 -0.875 -1.453125 C -1.664062 -0.773438 -2.710938 -0.4375 -4.015625 -0.4375 C -5.234375 -0.4375 -6.285156 -0.75 -7.171875 -1.375 C -8.066406 -2 -8.515625 -2.890625 -8.515625 -4.046875 Z M -8.515625 -4.046875 "/>
</g>
<g id="glyph-2-5">
</g>
<g id="glyph-2-6">
<path d="M -11.484375 -1.078125 L -11.484375 -2.484375 L 0 -2.484375 L 0 -1.078125 Z M -11.484375 -1.078125 "/>
</g>
<g id="glyph-2-7">
<path d="M -8.375 -1.03125 L -8.375 -2.375 L -7.1875 -2.375 C -7.675781 -2.769531 -8.023438 -3.1875 -8.234375 -3.625 C -8.453125 -4.070312 -8.5625 -4.566406 -8.5625 -5.109375 C -8.5625 -6.296875 -8.144531 -7.097656 -7.3125 -7.515625 C -6.863281 -7.742188 -6.21875 -7.859375 -5.375 -7.859375 L 0 -7.859375 L 0 -6.421875 L -5.28125 -6.421875 C -5.789062 -6.421875 -6.203125 -6.347656 -6.515625 -6.203125 C -7.035156 -5.953125 -7.296875 -5.5 -7.296875 -4.84375 C -7.296875 -4.507812 -7.257812 -4.234375 -7.1875 -4.015625 C -7.070312 -3.628906 -6.84375 -3.289062 -6.5 -3 C -6.226562 -2.769531 -5.941406 -2.617188 -5.640625 -2.546875 C -5.347656 -2.472656 -4.929688 -2.4375 -4.390625 -2.4375 L 0 -2.4375 L 0 -1.03125 Z M -8.578125 -4.34375 Z M -8.578125 -4.34375 "/>
</g>
<g id="glyph-2-8">
<path d="M -8.515625 -3.984375 C -8.515625 -4.640625 -8.351562 -5.210938 -8.03125 -5.703125 C -7.851562 -5.972656 -7.585938 -6.242188 -7.234375 -6.515625 L -8.296875 -6.515625 L -8.296875 -7.8125 L -0.6875 -7.8125 C 0.382812 -7.8125 1.226562 -7.65625 1.84375 -7.34375 C 2.976562 -6.757812 3.546875 -5.660156 3.546875 -4.046875 C 3.546875 -3.140625 3.34375 -2.378906 2.9375 -1.765625 C 2.53125 -1.148438 1.898438 -0.804688 1.046875 -0.734375 L 1.046875 -2.171875 C 1.421875 -2.234375 1.707031 -2.367188 1.90625 -2.578125 C 2.21875 -2.890625 2.375 -3.390625 2.375 -4.078125 C 2.375 -5.148438 1.992188 -5.851562 1.234375 -6.1875 C 0.785156 -6.382812 -0.015625 -6.476562 -1.171875 -6.46875 C -0.742188 -6.1875 -0.421875 -5.847656 -0.203125 -5.453125 C 0.00390625 -5.054688 0.109375 -4.53125 0.109375 -3.875 C 0.109375 -2.96875 -0.210938 -2.175781 -0.859375 -1.5 C -1.503906 -0.820312 -2.570312 -0.484375 -4.0625 -0.484375 C -5.457031 -0.484375 -6.546875 -0.820312 -7.328125 -1.5 C -8.117188 -2.1875 -8.515625 -3.015625 -8.515625 -3.984375 Z M -4.21875 -6.515625 C -5.257812 -6.515625 -6.03125 -6.300781 -6.53125 -5.875 C -7.03125 -5.445312 -7.28125 -4.90625 -7.28125 -4.25 C -7.28125 -3.257812 -6.816406 -2.582031 -5.890625 -2.21875 C -5.390625 -2.019531 -4.738281 -1.921875 -3.9375 -1.921875 C -3 -1.921875 -2.28125 -2.113281 -1.78125 -2.5 C -1.289062 -2.882812 -1.046875 -3.398438 -1.046875 -4.046875 C -1.046875 -5.054688 -1.503906 -5.765625 -2.421875 -6.171875 C -2.929688 -6.398438 -3.53125 -6.515625 -4.21875 -6.515625 Z M -8.578125 -4.15625 Z M -8.578125 -4.15625 "/>
</g>
<g id="glyph-2-9">
<path d="M -10.703125 -1.3125 L -10.703125 -2.734375 L -8.375 -2.734375 L -8.375 -4.078125 L -7.21875 -4.078125 L -7.21875 -2.734375 L -1.765625 -2.734375 C -1.472656 -2.734375 -1.273438 -2.832031 -1.171875 -3.03125 C -1.117188 -3.144531 -1.09375 -3.328125 -1.09375 -3.578125 C -1.09375 -3.648438 -1.09375 -3.722656 -1.09375 -3.796875 C -1.09375 -3.878906 -1.097656 -3.972656 -1.109375 -4.078125 L 0 -4.078125 C 0.0507812 -3.910156 0.0859375 -3.738281 0.109375 -3.5625 C 0.128906 -3.394531 0.140625 -3.207031 0.140625 -3 C 0.140625 -2.34375 -0.0234375 -1.894531 -0.359375 -1.65625 C -0.703125 -1.425781 -1.144531 -1.3125 -1.6875 -1.3125 L -7.21875 -1.3125 L -7.21875 -0.1875 L -8.375 -0.1875 L -8.375 -1.3125 Z M -10.703125 -1.3125 "/>
</g>
<g id="glyph-2-10">
<path d="M -11.671875 -4.734375 C -10.078125 -3.921875 -8.90625 -3.390625 -8.15625 -3.140625 C -7.019531 -2.773438 -5.703125 -2.59375 -4.203125 -2.59375 C -2.691406 -2.59375 -1.3125 -2.800781 -0.0625 -3.21875 C 0.707031 -3.476562 1.816406 -3.992188 3.265625 -4.765625 L 3.265625 -3.8125 C 2.078125 -3.050781 1.316406 -2.578125 0.984375 -2.390625 C 0.660156 -2.210938 0.21875 -2.019531 -0.34375 -1.8125 C -1.113281 -1.519531 -1.9375 -1.316406 -2.8125 -1.203125 C -3.269531 -1.140625 -3.703125 -1.109375 -4.109375 -1.109375 C -5.648438 -1.109375 -7.023438 -1.351562 -8.234375 -1.84375 C -8.992188 -2.144531 -10.140625 -2.785156 -11.671875 -3.765625 Z M -11.671875 -4.734375 "/>
</g>
<g id="glyph-2-11">
<path d="M -8.375 -1.03125 L -8.375 -2.421875 L -7.1875 -2.421875 C -7.59375 -2.753906 -7.890625 -3.054688 -8.078125 -3.328125 C -8.398438 -3.796875 -8.5625 -4.320312 -8.5625 -4.90625 C -8.5625 -5.570312 -8.394531 -6.109375 -8.0625 -6.515625 C -7.875 -6.742188 -7.597656 -6.953125 -7.234375 -7.140625 C -7.679688 -7.453125 -8.015625 -7.816406 -8.234375 -8.234375 C -8.453125 -8.660156 -8.5625 -9.140625 -8.5625 -9.671875 C -8.5625 -10.796875 -8.15625 -11.5625 -7.34375 -11.96875 C -6.90625 -12.1875 -6.316406 -12.296875 -5.578125 -12.296875 L 0 -12.296875 L 0 -10.828125 L -5.8125 -10.828125 C -6.375 -10.828125 -6.757812 -10.6875 -6.96875 -10.40625 C -7.175781 -10.132812 -7.28125 -9.796875 -7.28125 -9.390625 C -7.28125 -8.835938 -7.09375 -8.363281 -6.71875 -7.96875 C -6.351562 -7.570312 -5.738281 -7.375 -4.875 -7.375 L 0 -7.375 L 0 -5.9375 L -5.46875 -5.9375 C -6.03125 -5.9375 -6.441406 -5.867188 -6.703125 -5.734375 C -7.097656 -5.523438 -7.296875 -5.128906 -7.296875 -4.546875 C -7.296875 -4.015625 -7.085938 -3.53125 -6.671875 -3.09375 C -6.265625 -2.65625 -5.519531 -2.4375 -4.4375 -2.4375 L 0 -2.4375 L 0 -1.03125 Z M -8.375 -1.03125 "/>
</g>
<g id="glyph-2-12">
<path d="M 3.265625 -0.5625 C 1.648438 -1.382812 0.472656 -1.914062 -0.265625 -2.15625 C -1.390625 -2.519531 -2.703125 -2.703125 -4.203125 -2.703125 C -5.710938 -2.703125 -7.09375 -2.492188 -8.34375 -2.078125 C -9.113281 -1.816406 -10.222656 -1.300781 -11.671875 -0.53125 L -11.671875 -1.484375 C -10.390625 -2.285156 -9.597656 -2.769531 -9.296875 -2.9375 C -8.992188 -3.101562 -8.582031 -3.285156 -8.0625 -3.484375 C -7.40625 -3.734375 -6.757812 -3.910156 -6.125 -4.015625 C -5.488281 -4.128906 -4.878906 -4.1875 -4.296875 -4.1875 C -2.753906 -4.1875 -1.378906 -3.941406 -0.171875 -3.453125 C 0.609375 -3.140625 1.753906 -2.5 3.265625 -1.53125 Z M 3.265625 -0.5625 "/>
</g>
</g>
<clipPath id="clip-0">
<path clip-rule="nonzero" d="M 59.371094 255 L 424.03125 255 L 424.03125 257 L 59.371094 257 Z M 59.371094 255 "/>
</clipPath>
<clipPath id="clip-1">
<path clip-rule="nonzero" d="M 59.371094 199 L 424.03125 199 L 424.03125 201 L 59.371094 201 Z M 59.371094 199 "/>
</clipPath>
<clipPath id="clip-2">
<path clip-rule="nonzero" d="M 59.371094 142 L 424.03125 142 L 424.03125 144 L 59.371094 144 Z M 59.371094 142 "/>
</clipPath>
<clipPath id="clip-3">
<path clip-rule="nonzero" d="M 59.371094 86 L 424.03125 86 L 424.03125 88 L 59.371094 88 Z M 59.371094 86 "/>
</clipPath>
<clipPath id="clip-4">
<path clip-rule="nonzero" d="M 59.371094 29 L 424.03125 29 L 424.03125 32 L 59.371094 32 Z M 59.371094 29 "/>
</clipPath>
<clipPath id="clip-5">
<path clip-rule="nonzero" d="M 102 7.96875 L 104 7.96875 L 104 278.628906 L 102 278.628906 Z M 102 7.96875 "/>
</clipPath>
<clipPath id="clip-6">
<path clip-rule="nonzero" d="M 175 7.96875 L 177 7.96875 L 177 278.628906 L 175 278.628906 Z M 175 7.96875 "/>
</clipPath>
<clipPath id="clip-7">
<path clip-rule="nonzero" d="M 248 7.96875 L 250 7.96875 L 250 278.628906 L 248 278.628906 Z M 248 7.96875 "/>
</clipPath>
<clipPath id="clip-8">
<path clip-rule="nonzero" d="M 321 7.96875 L 323 7.96875 L 323 278.628906 L 321 278.628906 Z M 321 7.96875 "/>
</clipPath>
<clipPath id="clip-9">
<path clip-rule="nonzero" d="M 394 7.96875 L 396 7.96875 L 396 278.628906 L 394 278.628906 Z M 394 7.96875 "/>
</clipPath>
</defs>
<rect x="-43.2" y="-32.4" width="518.4" height="388.8" fill="rgb(100%, 100%, 100%)" fill-opacity="1"/>
<g clip-path="url(#clip-0)">
<path fill="none" stroke-width="1.066978" stroke-linecap="butt" stroke-linejoin="round" stroke="rgb(85.098039%, 85.098039%, 85.098039%)" stroke-opacity="1" stroke-miterlimit="10" d="M 59.371094 256.074219 L 424.03125 256.074219 "/>
</g>
<g clip-path="url(#clip-1)">
<path fill="none" stroke-width="1.066978" stroke-linecap="butt" stroke-linejoin="round" stroke="rgb(85.098039%, 85.098039%, 85.098039%)" stroke-opacity="1" stroke-miterlimit="10" d="M 59.371094 199.6875 L 424.03125 199.6875 "/>
</g>
<g clip-path="url(#clip-2)">
<path fill="none" stroke-width="1.066978" stroke-linecap="butt" stroke-linejoin="round" stroke="rgb(85.098039%, 85.098039%, 85.098039%)" stroke-opacity="1" stroke-miterlimit="10" d="M 59.371094 143.300781 L 424.03125 143.300781 "/>
</g>
<g clip-path="url(#clip-3)">
<path fill="none" stroke-width="1.066978" stroke-linecap="butt" stroke-linejoin="round" stroke="rgb(85.098039%, 85.098039%, 85.098039%)" stroke-opacity="1" stroke-miterlimit="10" d="M 59.371094 86.914062 L 424.03125 86.914062 "/>
</g>
<g clip-path="url(#clip-4)">
<path fill="none" stroke-width="1.066978" stroke-linecap="butt" stroke-linejoin="round" stroke="rgb(85.098039%, 85.098039%, 85.098039%)" stroke-opacity="1" stroke-miterlimit="10" d="M 59.371094 30.523438 L 424.03125 30.523438 "/>
</g>
<g clip-path="url(#clip-5)">
<path fill="none" stroke-width="1.066978" stroke-linecap="butt" stroke-linejoin="round" stroke="rgb(85.098039%, 85.098039%, 85.098039%)" stroke-opacity="1" stroke-miterlimit="10" d="M 103.128906 278.628906 L 103.128906 7.96875 "/>
</g>
<g clip-path="url(#clip-6)">
<path fill="none" stroke-width="1.066978" stroke-linecap="butt" stroke-linejoin="round" stroke="rgb(85.098039%, 85.098039%, 85.098039%)" stroke-opacity="1" stroke-miterlimit="10" d="M 176.0625 278.628906 L 176.0625 7.96875 "/>
</g>
<g clip-path="url(#clip-7)">
<path fill="none" stroke-width="1.066978" stroke-linecap="butt" stroke-linejoin="round" stroke="rgb(85.098039%, 85.098039%, 85.098039%)" stroke-opacity="1" stroke-miterlimit="10" d="M 248.992188 278.628906 L 248.992188 7.96875 "/>
</g>
<g clip-path="url(#clip-8)">
<path fill="none" stroke-width="1.066978" stroke-linecap="butt" stroke-linejoin="round" stroke="rgb(85.098039%, 85.098039%, 85.098039%)" stroke-opacity="1" stroke-miterlimit="10" d="M 321.925781 278.628906 L 321.925781 7.96875 "/>
</g>
<g clip-path="url(#clip-9)">
<path fill="none" stroke-width="1.066978" stroke-linecap="butt" stroke-linejoin="round" stroke="rgb(85.098039%, 85.098039%, 85.098039%)" stroke-opacity="1" stroke-miterlimit="10" d="M 394.855469 278.628906 L 394.855469 7.96875 "/>
</g>
<path fill-rule="nonzero" fill="rgb(12.54902%, 12.54902%, 12.54902%)" fill-opacity="0.698039" stroke-width="1.03078" stroke-linecap="round" stroke-linejoin="round" stroke="rgb(12.54902%, 12.54902%, 12.54902%)" stroke-opacity="0.698039" stroke-miterlimit="10" d="M 299.777344 107.664062 C 299.777344 111.195312 294.480469 111.195312 294.480469 107.664062 C 294.480469 104.128906 299.777344 104.128906 299.777344 107.664062 "/>
<path fill-rule="nonzero" fill="rgb(12.54902%, 12.54902%, 12.54902%)" fill-opacity="0.698039" stroke-width="1.03078" stroke-linecap="round" stroke-linejoin="round" stroke="rgb(12.54902%, 12.54902%, 12.54902%)" stroke-opacity="0.698039" stroke-miterlimit="10" d="M 326.035156 112.625 C 326.035156 116.15625 320.734375 116.15625 320.734375 112.625 C 320.734375 109.09375 326.035156 109.09375 326.035156 112.625 "/>
<path fill-rule="nonzero" fill="rgb(12.54902%, 12.54902%, 12.54902%)" fill-opacity="0.698039" stroke-width="1.03078" stroke-linecap="round" stroke-linejoin="round" stroke="rgb(12.54902%, 12.54902%, 12.54902%)" stroke-opacity="0.698039" stroke-miterlimit="10" d="M 255.289062 90.972656 C 255.289062 94.503906 249.992188 94.503906 249.992188 90.972656 C 249.992188 87.441406 255.289062 87.441406 255.289062 90.972656 "/>
<path fill-rule="nonzero" fill="rgb(12.54902%, 12.54902%, 12.54902%)" fill-opacity="0.698039" stroke-width="1.03078" stroke-linecap="round" stroke-linejoin="round" stroke="rgb(12.54902%, 12.54902%, 12.54902%)" stroke-opacity="0.698039" stroke-miterlimit="10" d="M 186.003906 171.042969 C 186.003906 174.574219 180.707031 174.574219 180.707031 171.042969 C 180.707031 167.507812 186.003906 167.507812 186.003906 171.042969 "/>
<path fill-rule="nonzero" fill="rgb(12.54902%, 12.54902%, 12.54902%)" fill-opacity="0.698039" stroke-width="1.03078" stroke-linecap="round" stroke-linejoin="round" stroke="rgb(12.54902%, 12.54902%, 12.54902%)" stroke-opacity="0.698039" stroke-miterlimit="10" d="M 323.117188 90.972656 C 323.117188 94.503906 317.816406 94.503906 317.816406 90.972656 C 317.816406 87.441406 323.117188 87.441406 323.117188 90.972656 "/>
<path fill-rule="nonzero" fill="rgb(12.54902%, 12.54902%, 12.54902%)" fill-opacity="0.698039" stroke-width="1.03078" stroke-linecap="round" stroke-linejoin="round" stroke="rgb(12.54902%, 12.54902%, 12.54902%)" stroke-opacity="0.698039" stroke-miterlimit="10" d="M 162.667969 205.324219 C 162.667969 208.859375 157.367188 208.859375 157.367188 205.324219 C 157.367188 201.792969 162.667969 201.792969 162.667969 205.324219 "/>
<path fill-rule="nonzero" fill="rgb(12.54902%, 12.54902%, 12.54902%)" fill-opacity="0.698039" stroke-width="1.03078" stroke-linecap="round" stroke-linejoin="round" stroke="rgb(12.54902%, 12.54902%, 12.54902%)" stroke-opacity="0.698039" stroke-miterlimit="10" d="M 326.035156 95.484375 C 326.035156 99.015625 320.734375 99.015625 320.734375 95.484375 C 320.734375 91.949219 326.035156 91.949219 326.035156 95.484375 "/>
<path fill-rule="nonzero" fill="rgb(12.54902%, 12.54902%, 12.54902%)" fill-opacity="0.698039" stroke-width="1.03078" stroke-linecap="round" stroke-linejoin="round" stroke="rgb(12.54902%, 12.54902%, 12.54902%)" stroke-opacity="0.698039" stroke-miterlimit="10" d="M 369.792969 15.414062 C 369.792969 18.945312 364.492188 18.945312 364.492188 15.414062 C 364.492188 11.878906 369.792969 11.878906 369.792969 15.414062 "/>
<path fill-rule="nonzero" fill="rgb(12.54902%, 12.54902%, 12.54902%)" fill-opacity="0.698039" stroke-width="1.03078" stroke-linecap="round" stroke-linejoin="round" stroke="rgb(12.54902%, 12.54902%, 12.54902%)" stroke-opacity="0.698039" stroke-miterlimit="10" d="M 164.125 192.242188 C 164.125 195.777344 158.824219 195.777344 158.824219 192.242188 C 158.824219 188.710938 164.125 188.710938 164.125 192.242188 "/>
<path fill-rule="nonzero" fill="rgb(12.54902%, 12.54902%, 12.54902%)" fill-opacity="0.698039" stroke-width="1.03078" stroke-linecap="round" stroke-linejoin="round" stroke="rgb(12.54902%, 12.54902%, 12.54902%)" stroke-opacity="0.698039" stroke-miterlimit="10" d="M 212.699219 144.652344 C 212.699219 148.183594 207.398438 148.183594 207.398438 144.652344 C 207.398438 141.121094 212.699219 141.121094 212.699219 144.652344 "/>
<path fill-rule="nonzero" fill="rgb(12.54902%, 12.54902%, 12.54902%)" fill-opacity="0.698039" stroke-width="1.03078" stroke-linecap="round" stroke-linejoin="round" stroke="rgb(12.54902%, 12.54902%, 12.54902%)" stroke-opacity="0.698039" stroke-miterlimit="10" d="M 344.996094 108.566406 C 344.996094 112.097656 339.695312 112.097656 339.695312 108.566406 C 339.695312 105.03125 344.996094 105.03125 344.996094 108.566406 "/>
<path fill-rule="nonzero" fill="rgb(12.54902%, 12.54902%, 12.54902%)" fill-opacity="0.698039" stroke-width="1.03078" stroke-linecap="round" stroke-linejoin="round" stroke="rgb(12.54902%, 12.54902%, 12.54902%)" stroke-opacity="0.698039" stroke-miterlimit="10" d="M 273.523438 150.292969 C 273.523438 153.824219 268.222656 153.824219 268.222656 150.292969 C 268.222656 146.757812 273.523438 146.757812 273.523438 150.292969 "/>
<path fill-rule="nonzero" fill="rgb(12.54902%, 12.54902%, 12.54902%)" fill-opacity="0.698039" stroke-width="1.03078" stroke-linecap="round" stroke-linejoin="round" stroke="rgb(12.54902%, 12.54902%, 12.54902%)" stroke-opacity="0.698039" stroke-miterlimit="10" d="M 371.25 109.917969 C 371.25 113.449219 365.953125 113.449219 365.953125 109.917969 C 365.953125 106.386719 371.25 106.386719 371.25 109.917969 "/>
<path fill-rule="nonzero" fill="rgb(12.54902%, 12.54902%, 12.54902%)" fill-opacity="0.698039" stroke-width="1.03078" stroke-linecap="round" stroke-linejoin="round" stroke="rgb(12.54902%, 12.54902%, 12.54902%)" stroke-opacity="0.698039" stroke-miterlimit="10" d="M 301.238281 126.382812 C 301.238281 129.914062 295.9375 129.914062 295.9375 126.382812 C 295.9375 122.851562 301.238281 122.851562 301.238281 126.382812 "/>
<path fill-rule="nonzero" fill="rgb(12.54902%, 12.54902%, 12.54902%)" fill-opacity="0.698039" stroke-width="1.03078" stroke-linecap="round" stroke-linejoin="round" stroke="rgb(12.54902%, 12.54902%, 12.54902%)" stroke-opacity="0.698039" stroke-miterlimit="10" d="M 353.746094 90.519531 C 353.746094 94.054688 348.449219 94.054688 348.449219 90.519531 C 348.449219 86.988281 353.746094 86.988281 353.746094 90.519531 "/>
<path fill-rule="nonzero" fill="rgb(12.54902%, 12.54902%, 12.54902%)" fill-opacity="0.698039" stroke-width="1.03078" stroke-linecap="round" stroke-linejoin="round" stroke="rgb(12.54902%, 12.54902%, 12.54902%)" stroke-opacity="0.698039" stroke-miterlimit="10" d="M 178.710938 187.28125 C 178.710938 190.8125 173.414062 190.8125 173.414062 187.28125 C 173.414062 183.75 178.710938 183.75 178.710938 187.28125 "/>
<path fill-rule="nonzero" fill="rgb(12.54902%, 12.54902%, 12.54902%)" fill-opacity="0.698039" stroke-width="1.03078" stroke-linecap="round" stroke-linejoin="round" stroke="rgb(12.54902%, 12.54902%, 12.54902%)" stroke-opacity="0.698039" stroke-miterlimit="10" d="M 327.492188 147.585938 C 327.492188 151.117188 322.191406 151.117188 322.191406 147.585938 C 322.191406 144.050781 327.492188 144.050781 327.492188 147.585938 "/>
<path fill-rule="nonzero" fill="rgb(12.54902%, 12.54902%, 12.54902%)" fill-opacity="0.698039" stroke-width="1.03078" stroke-linecap="round" stroke-linejoin="round" stroke="rgb(12.54902%, 12.54902%, 12.54902%)" stroke-opacity="0.698039" stroke-miterlimit="10" d="M 334.785156 59.847656 C 334.785156 63.378906 329.488281 63.378906 329.488281 59.847656 C 329.488281 56.3125 334.785156 56.3125 334.785156 59.847656 "/>
<path fill-rule="nonzero" fill="rgb(12.54902%, 12.54902%, 12.54902%)" fill-opacity="0.698039" stroke-width="1.03078" stroke-linecap="round" stroke-linejoin="round" stroke="rgb(12.54902%, 12.54902%, 12.54902%)" stroke-opacity="0.698039" stroke-miterlimit="10" d="M 374.167969 96.609375 C 374.167969 100.144531 368.871094 100.144531 368.871094 96.609375 C 368.871094 93.078125 374.167969 93.078125 374.167969 96.609375 "/>
<path fill-rule="nonzero" fill="rgb(12.54902%, 12.54902%, 12.54902%)" fill-opacity="0.698039" stroke-width="1.03078" stroke-linecap="round" stroke-linejoin="round" stroke="rgb(12.54902%, 12.54902%, 12.54902%)" stroke-opacity="0.698039" stroke-miterlimit="10" d="M 260.394531 125.480469 C 260.394531 129.011719 255.097656 129.011719 255.097656 125.480469 C 255.097656 121.949219 260.394531 121.949219 260.394531 125.480469 "/>
<path fill-rule="nonzero" fill="rgb(12.54902%, 12.54902%, 12.54902%)" fill-opacity="0.698039" stroke-width="1.03078" stroke-linecap="round" stroke-linejoin="round" stroke="rgb(12.54902%, 12.54902%, 12.54902%)" stroke-opacity="0.698039" stroke-miterlimit="10" d="M 320.199219 68.644531 C 320.199219 72.175781 314.898438 72.175781 314.898438 68.644531 C 314.898438 65.109375 320.199219 65.109375 320.199219 68.644531 "/>
<path fill-rule="nonzero" fill="rgb(12.54902%, 12.54902%, 12.54902%)" fill-opacity="0.698039" stroke-width="1.03078" stroke-linecap="round" stroke-linejoin="round" stroke="rgb(12.54902%, 12.54902%, 12.54902%)" stroke-opacity="0.698039" stroke-miterlimit="10" d="M 251.644531 154.351562 C 251.644531 157.882812 246.34375 157.882812 246.34375 154.351562 C 246.34375 150.820312 251.644531 150.820312 251.644531 154.351562 "/>
<path fill-rule="nonzero" fill="rgb(12.54902%, 12.54902%, 12.54902%)" fill-opacity="0.698039" stroke-width="1.03078" stroke-linecap="round" stroke-linejoin="round" stroke="rgb(12.54902%, 12.54902%, 12.54902%)" stroke-opacity="0.698039" stroke-miterlimit="10" d="M 330.410156 70.898438 C 330.410156 74.429688 325.109375 74.429688 325.109375 70.898438 C 325.109375 67.367188 330.410156 67.367188 330.410156 70.898438 "/>
<path fill-rule="nonzero" fill="rgb(12.54902%, 12.54902%, 12.54902%)" fill-opacity="0.698039" stroke-width="1.03078" stroke-linecap="round" stroke-linejoin="round" stroke="rgb(12.54902%, 12.54902%, 12.54902%)" stroke-opacity="0.698039" stroke-miterlimit="10" d="M 327.492188 163.824219 C 327.492188 167.355469 322.191406 167.355469 322.191406 163.824219 C 322.191406 160.292969 327.492188 160.292969 327.492188 163.824219 "/>
<path fill-rule="nonzero" fill="rgb(12.54902%, 12.54902%, 12.54902%)" fill-opacity="0.698039" stroke-width="1.03078" stroke-linecap="round" stroke-linejoin="round" stroke="rgb(12.54902%, 12.54902%, 12.54902%)" stroke-opacity="0.698039" stroke-miterlimit="10" d="M 317.28125 102.699219 C 317.28125 106.234375 311.984375 106.234375 311.984375 102.699219 C 311.984375 99.167969 317.28125 99.167969 317.28125 102.699219 "/>
<path fill-rule="nonzero" fill="rgb(12.54902%, 12.54902%, 12.54902%)" fill-opacity="0.698039" stroke-width="1.03078" stroke-linecap="round" stroke-linejoin="round" stroke="rgb(12.54902%, 12.54902%, 12.54902%)" stroke-opacity="0.698039" stroke-miterlimit="10" d="M 137.871094 102.25 C 137.871094 105.78125 132.570312 105.78125 132.570312 102.25 C 132.570312 98.71875 137.871094 98.71875 137.871094 102.25 "/>
<path fill-rule="nonzero" fill="rgb(12.54902%, 12.54902%, 12.54902%)" fill-opacity="0.698039" stroke-width="1.03078" stroke-linecap="round" stroke-linejoin="round" stroke="rgb(12.54902%, 12.54902%, 12.54902%)" stroke-opacity="0.698039" stroke-miterlimit="10" d="M 285.191406 134.503906 C 285.191406 138.035156 279.894531 138.035156 279.894531 134.503906 C 279.894531 130.972656 285.191406 130.972656 285.191406 134.503906 "/>
<path fill-rule="nonzero" fill="rgb(12.54902%, 12.54902%, 12.54902%)" fill-opacity="0.698039" stroke-width="1.03078" stroke-linecap="round" stroke-linejoin="round" stroke="rgb(12.54902%, 12.54902%, 12.54902%)" stroke-opacity="0.698039" stroke-miterlimit="10" d="M 309.988281 161.117188 C 309.988281 164.652344 304.691406 164.652344 304.691406 161.117188 C 304.691406 157.585938 309.988281 157.585938 309.988281 161.117188 "/>
<path fill-rule="nonzero" fill="rgb(12.54902%, 12.54902%, 12.54902%)" fill-opacity="0.698039" stroke-width="1.03078" stroke-linecap="round" stroke-linejoin="round" stroke="rgb(12.54902%, 12.54902%, 12.54902%)" stroke-opacity="0.698039" stroke-miterlimit="10" d="M 306.050781 100.894531 C 306.050781 104.429688 300.75 104.429688 300.75 100.894531 C 300.75 97.363281 306.050781 97.363281 306.050781 100.894531 "/>
<path fill-rule="nonzero" fill="rgb(12.54902%, 12.54902%, 12.54902%)" fill-opacity="0.698039" stroke-width="1.03078" stroke-linecap="round" stroke-linejoin="round" stroke="rgb(12.54902%, 12.54902%, 12.54902%)" stroke-opacity="0.698039" stroke-miterlimit="10" d="M 309.550781 112.398438 C 309.550781 115.933594 304.253906 115.933594 304.253906 112.398438 C 304.253906 108.867188 309.550781 108.867188 309.550781 112.398438 "/>
<path fill-rule="nonzero" fill="rgb(12.54902%, 12.54902%, 12.54902%)" fill-opacity="0.698039" stroke-width="1.03078" stroke-linecap="round" stroke-linejoin="round" stroke="rgb(12.54902%, 12.54902%, 12.54902%)" stroke-opacity="0.698039" stroke-miterlimit="10" d="M 204.964844 172.621094 C 204.964844 176.152344 199.667969 176.152344 199.667969 172.621094 C 199.667969 169.089844 204.964844 169.089844 204.964844 172.621094 "/>
<path fill-rule="nonzero" fill="rgb(12.54902%, 12.54902%, 12.54902%)" fill-opacity="0.698039" stroke-width="1.03078" stroke-linecap="round" stroke-linejoin="round" stroke="rgb(12.54902%, 12.54902%, 12.54902%)" stroke-opacity="0.698039" stroke-miterlimit="10" d="M 327.199219 121.648438 C 327.199219 125.179688 321.902344 125.179688 321.902344 121.648438 C 321.902344 118.113281 327.199219 118.113281 327.199219 121.648438 "/>
<path fill-rule="nonzero" fill="rgb(12.54902%, 12.54902%, 12.54902%)" fill-opacity="0.698039" stroke-width="1.03078" stroke-linecap="round" stroke-linejoin="round" stroke="rgb(12.54902%, 12.54902%, 12.54902%)" stroke-opacity="0.698039" stroke-miterlimit="10" d="M 372.710938 124.578125 C 372.710938 128.113281 367.410156 128.113281 367.410156 124.578125 C 367.410156 121.046875 372.710938 121.046875 372.710938 124.578125 "/>
<path fill-rule="nonzero" fill="rgb(12.54902%, 12.54902%, 12.54902%)" fill-opacity="0.698039" stroke-width="1.03078" stroke-linecap="round" stroke-linejoin="round" stroke="rgb(12.54902%, 12.54902%, 12.54902%)" stroke-opacity="0.698039" stroke-miterlimit="10" d="M 260.394531 132.699219 C 260.394531 136.230469 255.097656 136.230469 255.097656 132.699219 C 255.097656 129.167969 260.394531 129.167969 260.394531 132.699219 "/>
<path fill-rule="nonzero" fill="rgb(12.54902%, 12.54902%, 12.54902%)" fill-opacity="0.698039" stroke-width="1.03078" stroke-linecap="round" stroke-linejoin="round" stroke="rgb(12.54902%, 12.54902%, 12.54902%)" stroke-opacity="0.698039" stroke-miterlimit="10" d="M 282.273438 121.648438 C 282.273438 125.179688 276.976562 125.179688 276.976562 121.648438 C 276.976562 118.113281 282.273438 118.113281 282.273438 121.648438 "/>
<path fill-rule="nonzero" fill="rgb(12.54902%, 12.54902%, 12.54902%)" fill-opacity="0.698039" stroke-width="1.03078" stroke-linecap="round" stroke-linejoin="round" stroke="rgb(12.54902%, 12.54902%, 12.54902%)" stroke-opacity="0.698039" stroke-miterlimit="10" d="M 254.558594 107.4375 C 254.558594 110.96875 249.261719 110.96875 249.261719 107.4375 C 249.261719 103.90625 254.558594 103.90625 254.558594 107.4375 "/>
<path fill-rule="nonzero" fill="rgb(12.54902%, 12.54902%, 12.54902%)" fill-opacity="0.698039" stroke-width="1.03078" stroke-linecap="round" stroke-linejoin="round" stroke="rgb(12.54902%, 12.54902%, 12.54902%)" stroke-opacity="0.698039" stroke-miterlimit="10" d="M 309.988281 86.914062 C 309.988281 90.445312 304.691406 90.445312 304.691406 86.914062 C 304.691406 83.378906 309.988281 83.378906 309.988281 86.914062 "/>
<path fill-rule="nonzero" fill="rgb(12.54902%, 12.54902%, 12.54902%)" fill-opacity="0.698039" stroke-width="1.03078" stroke-linecap="round" stroke-linejoin="round" stroke="rgb(12.54902%, 12.54902%, 12.54902%)" stroke-opacity="0.698039" stroke-miterlimit="10" d="M 246.828125 120.519531 C 246.828125 124.050781 241.53125 124.050781 241.53125 120.519531 C 241.53125 116.988281 246.828125 116.988281 246.828125 120.519531 "/>
<path fill-rule="nonzero" fill="rgb(12.54902%, 12.54902%, 12.54902%)" fill-opacity="0.698039" stroke-width="1.03078" stroke-linecap="round" stroke-linejoin="round" stroke="rgb(12.54902%, 12.54902%, 12.54902%)" stroke-opacity="0.698039" stroke-miterlimit="10" d="M 242.890625 154.800781 C 242.890625 158.335938 237.59375 158.335938 237.59375 154.800781 C 237.59375 151.269531 242.890625 151.269531 242.890625 154.800781 "/>
<path fill-rule="nonzero" fill="rgb(12.54902%, 12.54902%, 12.54902%)" fill-opacity="0.698039" stroke-width="1.03078" stroke-linecap="round" stroke-linejoin="round" stroke="rgb(12.54902%, 12.54902%, 12.54902%)" stroke-opacity="0.698039" stroke-miterlimit="10" d="M 362.5 119.84375 C 362.5 123.375 357.199219 123.375 357.199219 119.84375 C 357.199219 116.308594 362.5 116.308594 362.5 119.84375 "/>
<path fill-rule="nonzero" fill="rgb(12.54902%, 12.54902%, 12.54902%)" fill-opacity="0.698039" stroke-width="1.03078" stroke-linecap="round" stroke-linejoin="round" stroke="rgb(12.54902%, 12.54902%, 12.54902%)" stroke-opacity="0.698039" stroke-miterlimit="10" d="M 108.257812 171.71875 C 108.257812 175.25 102.960938 175.25 102.960938 171.71875 C 102.960938 168.1875 108.257812 168.1875 108.257812 171.71875 "/>
<path fill-rule="nonzero" fill="rgb(12.54902%, 12.54902%, 12.54902%)" fill-opacity="0.698039" stroke-width="1.03078" stroke-linecap="round" stroke-linejoin="round" stroke="rgb(12.54902%, 12.54902%, 12.54902%)" stroke-opacity="0.698039" stroke-miterlimit="10" d="M 258.9375 162.921875 C 258.9375 166.453125 253.636719 166.453125 253.636719 162.921875 C 253.636719 159.390625 258.9375 159.390625 258.9375 162.921875 "/>
<path fill-rule="nonzero" fill="rgb(12.54902%, 12.54902%, 12.54902%)" fill-opacity="0.698039" stroke-width="1.03078" stroke-linecap="round" stroke-linejoin="round" stroke="rgb(12.54902%, 12.54902%, 12.54902%)" stroke-opacity="0.698039" stroke-miterlimit="10" d="M 215.175781 102.699219 C 215.175781 106.234375 209.878906 106.234375 209.878906 102.699219 C 209.878906 99.167969 215.175781 99.167969 215.175781 102.699219 "/>
<path fill-rule="nonzero" fill="rgb(12.54902%, 12.54902%, 12.54902%)" fill-opacity="0.698039" stroke-width="1.03078" stroke-linecap="round" stroke-linejoin="round" stroke="rgb(12.54902%, 12.54902%, 12.54902%)" stroke-opacity="0.698039" stroke-miterlimit="10" d="M 338.433594 78.792969 C 338.433594 82.324219 333.132812 82.324219 333.132812 78.792969 C 333.132812 75.261719 338.433594 75.261719 338.433594 78.792969 "/>
<path fill-rule="nonzero" fill="rgb(12.54902%, 12.54902%, 12.54902%)" fill-opacity="0.698039" stroke-width="1.03078" stroke-linecap="round" stroke-linejoin="round" stroke="rgb(12.54902%, 12.54902%, 12.54902%)" stroke-opacity="0.698039" stroke-miterlimit="10" d="M 390.214844 109.46875 C 390.214844 113 384.914062 113 384.914062 109.46875 C 384.914062 105.933594 390.214844 105.933594 390.214844 109.46875 "/>
<path fill-rule="nonzero" fill="rgb(12.54902%, 12.54902%, 12.54902%)" fill-opacity="0.698039" stroke-width="1.03078" stroke-linecap="round" stroke-linejoin="round" stroke="rgb(12.54902%, 12.54902%, 12.54902%)" stroke-opacity="0.698039" stroke-miterlimit="10" d="M 361.039062 102.25 C 361.039062 105.78125 355.742188 105.78125 355.742188 102.25 C 355.742188 98.71875 361.039062 98.71875 361.039062 102.25 "/>
<path fill-rule="nonzero" fill="rgb(12.54902%, 12.54902%, 12.54902%)" fill-opacity="0.698039" stroke-width="1.03078" stroke-linecap="round" stroke-linejoin="round" stroke="rgb(12.54902%, 12.54902%, 12.54902%)" stroke-opacity="0.698039" stroke-miterlimit="10" d="M 385.835938 112.851562 C 385.835938 116.382812 380.539062 116.382812 380.539062 112.851562 C 380.539062 109.316406 385.835938 109.316406 385.835938 112.851562 "/>
<path fill-rule="nonzero" fill="rgb(12.54902%, 12.54902%, 12.54902%)" fill-opacity="0.698039" stroke-width="1.03078" stroke-linecap="round" stroke-linejoin="round" stroke="rgb(12.54902%, 12.54902%, 12.54902%)" stroke-opacity="0.698039" stroke-miterlimit="10" d="M 183.085938 158.863281 C 183.085938 162.394531 177.789062 162.394531 177.789062 158.863281 C 177.789062 155.328125 183.085938 155.328125 183.085938 158.863281 "/>
<path fill-rule="nonzero" fill="rgb(12.54902%, 12.54902%, 12.54902%)" fill-opacity="0.698039" stroke-width="1.03078" stroke-linecap="round" stroke-linejoin="round" stroke="rgb(12.54902%, 12.54902%, 12.54902%)" stroke-opacity="0.698039" stroke-miterlimit="10" d="M 237.054688 111.722656 C 237.054688 115.253906 231.757812 115.253906 231.757812 111.722656 C 231.757812 108.191406 237.054688 108.191406 237.054688 111.722656 "/>
<path fill-rule="nonzero" fill="rgb(12.54902%, 12.54902%, 12.54902%)" fill-opacity="0.698039" stroke-width="1.03078" stroke-linecap="round" stroke-linejoin="round" stroke="rgb(12.54902%, 12.54902%, 12.54902%)" stroke-opacity="0.698039" stroke-miterlimit="10" d="M 187.464844 187.507812 C 187.464844 191.039062 182.164062 191.039062 182.164062 187.507812 C 182.164062 183.976562 187.464844 183.976562 187.464844 187.507812 "/>
<path fill-rule="nonzero" fill="rgb(12.54902%, 12.54902%, 12.54902%)" fill-opacity="0.698039" stroke-width="1.03078" stroke-linecap="round" stroke-linejoin="round" stroke="rgb(12.54902%, 12.54902%, 12.54902%)" stroke-opacity="0.698039" stroke-miterlimit="10" d="M 219.992188 130.21875 C 219.992188 133.75 214.691406 133.75 214.691406 130.21875 C 214.691406 126.683594 219.992188 126.683594 219.992188 130.21875 "/>
<path fill-rule="nonzero" fill="rgb(12.54902%, 12.54902%, 12.54902%)" fill-opacity="0.698039" stroke-width="1.03078" stroke-linecap="round" stroke-linejoin="round" stroke="rgb(12.54902%, 12.54902%, 12.54902%)" stroke-opacity="0.698039" stroke-miterlimit="10" d="M 334.785156 101.796875 C 334.785156 105.332031 329.488281 105.332031 329.488281 101.796875 C 329.488281 98.265625 334.785156 98.265625 334.785156 101.796875 "/>
<path fill-rule="nonzero" fill="rgb(12.54902%, 12.54902%, 12.54902%)" fill-opacity="0.698039" stroke-width="1.03078" stroke-linecap="round" stroke-linejoin="round" stroke="rgb(12.54902%, 12.54902%, 12.54902%)" stroke-opacity="0.698039" stroke-miterlimit="10" d="M 289.566406 98.191406 C 289.566406 101.722656 284.269531 101.722656 284.269531 98.191406 C 284.269531 94.65625 289.566406 94.65625 289.566406 98.191406 "/>
<path fill-rule="nonzero" fill="rgb(12.54902%, 12.54902%, 12.54902%)" fill-opacity="0.698039" stroke-width="1.03078" stroke-linecap="round" stroke-linejoin="round" stroke="rgb(12.54902%, 12.54902%, 12.54902%)" stroke-opacity="0.698039" stroke-miterlimit="10" d="M 88.277344 171.71875 C 88.277344 175.25 82.976562 175.25 82.976562 171.71875 C 82.976562 168.1875 88.277344 168.1875 88.277344 171.71875 "/>
<path fill-rule="nonzero" fill="rgb(12.54902%, 12.54902%, 12.54902%)" fill-opacity="0.698039" stroke-width="1.03078" stroke-linecap="round" stroke-linejoin="round" stroke="rgb(12.54902%, 12.54902%, 12.54902%)" stroke-opacity="0.698039" stroke-miterlimit="10" d="M 264.769531 126.609375 C 264.769531 130.140625 259.472656 130.140625 259.472656 126.609375 C 259.472656 123.078125 264.769531 123.078125 264.769531 126.609375 "/>
<path fill-rule="nonzero" fill="rgb(12.54902%, 12.54902%, 12.54902%)" fill-opacity="0.698039" stroke-width="1.03078" stroke-linecap="round" stroke-linejoin="round" stroke="rgb(12.54902%, 12.54902%, 12.54902%)" stroke-opacity="0.698039" stroke-miterlimit="10" d="M 197.671875 134.953125 C 197.671875 138.488281 192.375 138.488281 192.375 134.953125 C 192.375 131.421875 197.671875 131.421875 197.671875 134.953125 "/>
<path fill-rule="nonzero" fill="rgb(12.54902%, 12.54902%, 12.54902%)" fill-opacity="0.698039" stroke-width="1.03078" stroke-linecap="round" stroke-linejoin="round" stroke="rgb(12.54902%, 12.54902%, 12.54902%)" stroke-opacity="0.698039" stroke-miterlimit="10" d="M 308.53125 101.347656 C 308.53125 104.878906 303.230469 104.878906 303.230469 101.347656 C 303.230469 97.816406 308.53125 97.816406 308.53125 101.347656 "/>
<path fill-rule="nonzero" fill="rgb(12.54902%, 12.54902%, 12.54902%)" fill-opacity="0.698039" stroke-width="1.03078" stroke-linecap="round" stroke-linejoin="round" stroke="rgb(12.54902%, 12.54902%, 12.54902%)" stroke-opacity="0.698039" stroke-miterlimit="10" d="M 271.335938 83.753906 C 271.335938 87.285156 266.035156 87.285156 266.035156 83.753906 C 266.035156 80.222656 271.335938 80.222656 271.335938 83.753906 "/>
<path fill-rule="nonzero" fill="rgb(12.54902%, 12.54902%, 12.54902%)" fill-opacity="0.698039" stroke-width="1.03078" stroke-linecap="round" stroke-linejoin="round" stroke="rgb(12.54902%, 12.54902%, 12.54902%)" stroke-opacity="0.698039" stroke-miterlimit="10" d="M 308.53125 78.792969 C 308.53125 82.324219 303.230469 82.324219 303.230469 78.792969 C 303.230469 75.261719 308.53125 75.261719 308.53125 78.792969 "/>
<path fill-rule="nonzero" fill="rgb(12.54902%, 12.54902%, 12.54902%)" fill-opacity="0.698039" stroke-width="1.03078" stroke-linecap="round" stroke-linejoin="round" stroke="rgb(12.54902%, 12.54902%, 12.54902%)" stroke-opacity="0.698039" stroke-miterlimit="10" d="M 210.800781 142.847656 C 210.800781 146.382812 205.503906 146.382812 205.503906 142.847656 C 205.503906 139.316406 210.800781 139.316406 210.800781 142.847656 "/>
<path fill-rule="nonzero" fill="rgb(12.54902%, 12.54902%, 12.54902%)" fill-opacity="0.698039" stroke-width="1.03078" stroke-linecap="round" stroke-linejoin="round" stroke="rgb(12.54902%, 12.54902%, 12.54902%)" stroke-opacity="0.698039" stroke-miterlimit="10" d="M 295.402344 91.421875 C 295.402344 94.957031 290.101562 94.957031 290.101562 91.421875 C 290.101562 87.890625 295.402344 87.890625 295.402344 91.421875 "/>
<path fill-rule="nonzero" fill="rgb(12.54902%, 12.54902%, 12.54902%)" fill-opacity="0.698039" stroke-width="1.03078" stroke-linecap="round" stroke-linejoin="round" stroke="rgb(12.54902%, 12.54902%, 12.54902%)" stroke-opacity="0.698039" stroke-miterlimit="10" d="M 309.988281 100.445312 C 309.988281 103.976562 304.691406 103.976562 304.691406 100.445312 C 304.691406 96.914062 309.988281 96.914062 309.988281 100.445312 "/>
<path fill-rule="nonzero" fill="rgb(12.54902%, 12.54902%, 12.54902%)" fill-opacity="0.698039" stroke-width="1.03078" stroke-linecap="round" stroke-linejoin="round" stroke="rgb(12.54902%, 12.54902%, 12.54902%)" stroke-opacity="0.698039" stroke-miterlimit="10" d="M 159.75 192.921875 C 159.75 196.453125 154.449219 196.453125 154.449219 192.921875 C 154.449219 189.386719 159.75 189.386719 159.75 192.921875 "/>
<path fill-rule="nonzero" fill="rgb(12.54902%, 12.54902%, 12.54902%)" fill-opacity="0.698039" stroke-width="1.03078" stroke-linecap="round" stroke-linejoin="round" stroke="rgb(12.54902%, 12.54902%, 12.54902%)" stroke-opacity="0.698039" stroke-miterlimit="10" d="M 292.484375 161.34375 C 292.484375 164.875 287.1875 164.875 287.1875 161.34375 C 287.1875 157.8125 292.484375 157.8125 292.484375 161.34375 "/>
<path fill-rule="nonzero" fill="rgb(12.54902%, 12.54902%, 12.54902%)" fill-opacity="0.698039" stroke-width="1.03078" stroke-linecap="round" stroke-linejoin="round" stroke="rgb(12.54902%, 12.54902%, 12.54902%)" stroke-opacity="0.698039" stroke-miterlimit="10" d="M 343.535156 91.421875 C 343.535156 94.957031 338.238281 94.957031 338.238281 91.421875 C 338.238281 87.890625 343.535156 87.890625 343.535156 91.421875 "/>
<path fill-rule="nonzero" fill="rgb(12.54902%, 12.54902%, 12.54902%)" fill-opacity="0.698039" stroke-width="1.03078" stroke-linecap="round" stroke-linejoin="round" stroke="rgb(12.54902%, 12.54902%, 12.54902%)" stroke-opacity="0.698039" stroke-miterlimit="10" d="M 193.296875 168.109375 C 193.296875 171.640625 188 171.640625 188 168.109375 C 188 164.578125 193.296875 164.578125 193.296875 168.109375 "/>
<path fill-rule="nonzero" fill="rgb(12.54902%, 12.54902%, 12.54902%)" fill-opacity="0.698039" stroke-width="1.03078" stroke-linecap="round" stroke-linejoin="round" stroke="rgb(12.54902%, 12.54902%, 12.54902%)" stroke-opacity="0.698039" stroke-miterlimit="10" d="M 309.988281 104.957031 C 309.988281 108.488281 304.691406 108.488281 304.691406 104.957031 C 304.691406 101.421875 309.988281 101.421875 309.988281 104.957031 "/>
<path fill-rule="nonzero" fill="rgb(12.54902%, 12.54902%, 12.54902%)" fill-opacity="0.698039" stroke-width="1.03078" stroke-linecap="round" stroke-linejoin="round" stroke="rgb(12.54902%, 12.54902%, 12.54902%)" stroke-opacity="0.698039" stroke-miterlimit="10" d="M 343.535156 113.976562 C 343.535156 117.511719 338.238281 117.511719 338.238281 113.976562 C 338.238281 110.445312 343.535156 110.445312 343.535156 113.976562 "/>
<path fill-rule="nonzero" fill="rgb(12.54902%, 12.54902%, 12.54902%)" fill-opacity="0.698039" stroke-width="1.03078" stroke-linecap="round" stroke-linejoin="round" stroke="rgb(12.54902%, 12.54902%, 12.54902%)" stroke-opacity="0.698039" stroke-miterlimit="10" d="M 270.605469 132.023438 C 270.605469 135.554688 265.304688 135.554688 265.304688 132.023438 C 265.304688 128.488281 270.605469 128.488281 270.605469 132.023438 "/>
<path fill-rule="nonzero" fill="rgb(12.54902%, 12.54902%, 12.54902%)" fill-opacity="0.698039" stroke-width="1.03078" stroke-linecap="round" stroke-linejoin="round" stroke="rgb(12.54902%, 12.54902%, 12.54902%)" stroke-opacity="0.698039" stroke-miterlimit="10" d="M 178.710938 168.109375 C 178.710938 171.640625 173.414062 171.640625 173.414062 168.109375 C 173.414062 164.578125 178.710938 164.578125 178.710938 168.109375 "/>
<path fill-rule="nonzero" fill="rgb(12.54902%, 12.54902%, 12.54902%)" fill-opacity="0.698039" stroke-width="1.03078" stroke-linecap="round" stroke-linejoin="round" stroke="rgb(12.54902%, 12.54902%, 12.54902%)" stroke-opacity="0.698039" stroke-miterlimit="10" d="M 307.070312 118.488281 C 307.070312 122.023438 301.773438 122.023438 301.773438 118.488281 C 301.773438 114.957031 307.070312 114.957031 307.070312 118.488281 "/>
<path fill-rule="nonzero" fill="rgb(12.54902%, 12.54902%, 12.54902%)" fill-opacity="0.698039" stroke-width="1.03078" stroke-linecap="round" stroke-linejoin="round" stroke="rgb(12.54902%, 12.54902%, 12.54902%)" stroke-opacity="0.698039" stroke-miterlimit="10" d="M 237.054688 165.855469 C 237.054688 169.386719 231.757812 169.386719 231.757812 165.855469 C 231.757812 162.320312 237.054688 162.320312 237.054688 165.855469 "/>
<path fill-rule="nonzero" fill="rgb(12.54902%, 12.54902%, 12.54902%)" fill-opacity="0.698039" stroke-width="1.03078" stroke-linecap="round" stroke-linejoin="round" stroke="rgb(12.54902%, 12.54902%, 12.54902%)" stroke-opacity="0.698039" stroke-miterlimit="10" d="M 282.273438 145.554688 C 282.273438 149.085938 276.976562 149.085938 276.976562 145.554688 C 276.976562 142.023438 282.273438 142.023438 282.273438 145.554688 "/>
<path fill-rule="nonzero" fill="rgb(12.54902%, 12.54902%, 12.54902%)" fill-opacity="0.698039" stroke-width="1.03078" stroke-linecap="round" stroke-linejoin="round" stroke="rgb(12.54902%, 12.54902%, 12.54902%)" stroke-opacity="0.698039" stroke-miterlimit="10" d="M 410.632812 48.570312 C 410.632812 52.101562 405.335938 52.101562 405.335938 48.570312 C 405.335938 45.035156 410.632812 45.035156 410.632812 48.570312 "/>
<path fill-rule="nonzero" fill="rgb(12.54902%, 12.54902%, 12.54902%)" fill-opacity="0.698039" stroke-width="1.03078" stroke-linecap="round" stroke-linejoin="round" stroke="rgb(12.54902%, 12.54902%, 12.54902%)" stroke-opacity="0.698039" stroke-miterlimit="10" d="M 229.761719 143.300781 C 229.761719 146.832031 224.464844 146.832031 224.464844 143.300781 C 224.464844 139.765625 229.761719 139.765625 229.761719 143.300781 "/>
<path fill-rule="nonzero" fill="rgb(12.54902%, 12.54902%, 12.54902%)" fill-opacity="0.698039" stroke-width="1.03078" stroke-linecap="round" stroke-linejoin="round" stroke="rgb(12.54902%, 12.54902%, 12.54902%)" stroke-opacity="0.698039" stroke-miterlimit="10" d="M 251.644531 156.832031 C 251.644531 160.363281 246.34375 160.363281 246.34375 156.832031 C 246.34375 153.300781 251.644531 153.300781 251.644531 156.832031 "/>
<path fill-rule="nonzero" fill="rgb(12.54902%, 12.54902%, 12.54902%)" fill-opacity="0.698039" stroke-width="1.03078" stroke-linecap="round" stroke-linejoin="round" stroke="rgb(12.54902%, 12.54902%, 12.54902%)" stroke-opacity="0.698039" stroke-miterlimit="10" d="M 337.703125 104.957031 C 337.703125 108.488281 332.402344 108.488281 332.402344 104.957031 C 332.402344 101.421875 337.703125 101.421875 337.703125 104.957031 "/>
<path fill-rule="nonzero" fill="rgb(12.54902%, 12.54902%, 12.54902%)" fill-opacity="0.698039" stroke-width="1.03078" stroke-linecap="round" stroke-linejoin="round" stroke="rgb(12.54902%, 12.54902%, 12.54902%)" stroke-opacity="0.698039" stroke-miterlimit="10" d="M 251.644531 132.023438 C 251.644531 135.554688 246.34375 135.554688 246.34375 132.023438 C 246.34375 128.488281 251.644531 128.488281 251.644531 132.023438 "/>
<path fill-rule="nonzero" fill="rgb(12.54902%, 12.54902%, 12.54902%)" fill-opacity="0.698039" stroke-width="1.03078" stroke-linecap="round" stroke-linejoin="round" stroke="rgb(12.54902%, 12.54902%, 12.54902%)" stroke-opacity="0.698039" stroke-miterlimit="10" d="M 237.054688 174.875 C 237.054688 178.410156 231.757812 178.410156 231.757812 174.875 C 231.757812 171.34375 237.054688 171.34375 237.054688 174.875 "/>
<path fill-rule="nonzero" fill="rgb(12.54902%, 12.54902%, 12.54902%)" fill-opacity="0.698039" stroke-width="1.03078" stroke-linecap="round" stroke-linejoin="round" stroke="rgb(12.54902%, 12.54902%, 12.54902%)" stroke-opacity="0.698039" stroke-miterlimit="10" d="M 336.242188 107.210938 C 336.242188 110.746094 330.945312 110.746094 330.945312 107.210938 C 330.945312 103.679688 336.242188 103.679688 336.242188 107.210938 "/>
<path fill-rule="nonzero" fill="rgb(12.54902%, 12.54902%, 12.54902%)" fill-opacity="0.698039" stroke-width="1.03078" stroke-linecap="round" stroke-linejoin="round" stroke="rgb(12.54902%, 12.54902%, 12.54902%)" stroke-opacity="0.698039" stroke-miterlimit="10" d="M 247.265625 86.914062 C 247.265625 90.445312 241.96875 90.445312 241.96875 86.914062 C 241.96875 83.378906 247.265625 83.378906 247.265625 86.914062 "/>
<path fill-rule="nonzero" fill="rgb(12.54902%, 12.54902%, 12.54902%)" fill-opacity="0.698039" stroke-width="1.03078" stroke-linecap="round" stroke-linejoin="round" stroke="rgb(12.54902%, 12.54902%, 12.54902%)" stroke-opacity="0.698039" stroke-miterlimit="10" d="M 186.003906 116.234375 C 186.003906 119.765625 180.707031 119.765625 180.707031 116.234375 C 180.707031 112.703125 186.003906 112.703125 186.003906 116.234375 "/>
<path fill-rule="nonzero" fill="rgb(12.54902%, 12.54902%, 12.54902%)" fill-opacity="0.698039" stroke-width="1.03078" stroke-linecap="round" stroke-linejoin="round" stroke="rgb(12.54902%, 12.54902%, 12.54902%)" stroke-opacity="0.698039" stroke-miterlimit="10" d="M 221.011719 116.234375 C 221.011719 119.765625 215.710938 119.765625 215.710938 116.234375 C 215.710938 112.703125 221.011719 112.703125 221.011719 116.234375 "/>
<path fill-rule="nonzero" fill="rgb(12.54902%, 12.54902%, 12.54902%)" fill-opacity="0.698039" stroke-width="1.03078" stroke-linecap="round" stroke-linejoin="round" stroke="rgb(12.54902%, 12.54902%, 12.54902%)" stroke-opacity="0.698039" stroke-miterlimit="10" d="M 419.386719 104.957031 C 419.386719 108.488281 414.085938 108.488281 414.085938 104.957031 C 414.085938 101.421875 419.386719 101.421875 419.386719 104.957031 "/>
<path fill-rule="nonzero" fill="rgb(12.54902%, 12.54902%, 12.54902%)" fill-opacity="0.698039" stroke-width="1.03078" stroke-linecap="round" stroke-linejoin="round" stroke="rgb(12.54902%, 12.54902%, 12.54902%)" stroke-opacity="0.698039" stroke-miterlimit="10" d="M 309.988281 109.917969 C 309.988281 113.449219 304.691406 113.449219 304.691406 109.917969 C 304.691406 106.386719 309.988281 106.386719 309.988281 109.917969 "/>
<path fill-rule="nonzero" fill="rgb(12.54902%, 12.54902%, 12.54902%)" fill-opacity="0.698039" stroke-width="1.03078" stroke-linecap="round" stroke-linejoin="round" stroke="rgb(12.54902%, 12.54902%, 12.54902%)" stroke-opacity="0.698039" stroke-miterlimit="10" d="M 273.523438 110.59375 C 273.523438 114.128906 268.222656 114.128906 268.222656 110.59375 C 268.222656 107.0625 273.523438 107.0625 273.523438 110.59375 "/>
<path fill-rule="nonzero" fill="rgb(12.54902%, 12.54902%, 12.54902%)" fill-opacity="0.698039" stroke-width="1.03078" stroke-linecap="round" stroke-linejoin="round" stroke="rgb(12.54902%, 12.54902%, 12.54902%)" stroke-opacity="0.698039" stroke-miterlimit="10" d="M 194.757812 126.15625 C 194.757812 129.691406 189.457031 129.691406 189.457031 126.15625 C 189.457031 122.625 194.757812 122.625 194.757812 126.15625 "/>
<path fill-rule="nonzero" fill="rgb(12.54902%, 12.54902%, 12.54902%)" fill-opacity="0.698039" stroke-width="1.03078" stroke-linecap="round" stroke-linejoin="round" stroke="rgb(12.54902%, 12.54902%, 12.54902%)" stroke-opacity="0.698039" stroke-miterlimit="10" d="M 248.726562 127.511719 C 248.726562 131.042969 243.425781 131.042969 243.425781 127.511719 C 243.425781 123.980469 248.726562 123.980469 248.726562 127.511719 "/>
<path fill-rule="nonzero" fill="rgb(12.54902%, 12.54902%, 12.54902%)" fill-opacity="0.698039" stroke-width="1.03078" stroke-linecap="round" stroke-linejoin="round" stroke="rgb(12.54902%, 12.54902%, 12.54902%)" stroke-opacity="0.698039" stroke-miterlimit="10" d="M 229.761719 148.710938 C 229.761719 152.246094 224.464844 152.246094 224.464844 148.710938 C 224.464844 145.179688 229.761719 145.179688 229.761719 148.710938 "/>
<path fill-rule="nonzero" fill="rgb(12.54902%, 12.54902%, 12.54902%)" fill-opacity="0.698039" stroke-width="1.03078" stroke-linecap="round" stroke-linejoin="round" stroke="rgb(12.54902%, 12.54902%, 12.54902%)" stroke-opacity="0.698039" stroke-miterlimit="10" d="M 251.644531 194.273438 C 251.644531 197.804688 246.34375 197.804688 246.34375 194.273438 C 246.34375 190.742188 251.644531 190.742188 251.644531 194.273438 "/>
<path fill-rule="nonzero" fill="rgb(12.54902%, 12.54902%, 12.54902%)" fill-opacity="0.698039" stroke-width="1.03078" stroke-linecap="round" stroke-linejoin="round" stroke="rgb(12.54902%, 12.54902%, 12.54902%)" stroke-opacity="0.698039" stroke-miterlimit="10" d="M 204.238281 110.820312 C 204.238281 114.351562 198.9375 114.351562 198.9375 110.820312 C 198.9375 107.289062 204.238281 107.289062 204.238281 110.820312 "/>
<path fill-rule="nonzero" fill="rgb(12.54902%, 12.54902%, 12.54902%)" fill-opacity="0.698039" stroke-width="1.03078" stroke-linecap="round" stroke-linejoin="round" stroke="rgb(12.54902%, 12.54902%, 12.54902%)" stroke-opacity="0.698039" stroke-miterlimit="10" d="M 346.453125 64.355469 C 346.453125 67.890625 341.15625 67.890625 341.15625 64.355469 C 341.15625 60.824219 346.453125 60.824219 346.453125 64.355469 "/>
<path fill-rule="nonzero" fill="rgb(12.54902%, 12.54902%, 12.54902%)" fill-opacity="0.698039" stroke-width="1.03078" stroke-linecap="round" stroke-linejoin="round" stroke="rgb(12.54902%, 12.54902%, 12.54902%)" stroke-opacity="0.698039" stroke-miterlimit="10" d="M 241.433594 121.421875 C 241.433594 124.953125 236.132812 124.953125 236.132812 121.421875 C 236.132812 117.890625 241.433594 117.890625 241.433594 121.421875 "/>
<path fill-rule="nonzero" fill="rgb(12.54902%, 12.54902%, 12.54902%)" fill-opacity="0.698039" stroke-width="1.03078" stroke-linecap="round" stroke-linejoin="round" stroke="rgb(12.54902%, 12.54902%, 12.54902%)" stroke-opacity="0.698039" stroke-miterlimit="10" d="M 219.554688 128.863281 C 219.554688 132.398438 214.253906 132.398438 214.253906 128.863281 C 214.253906 125.332031 219.554688 125.332031 219.554688 128.863281 "/>
<path fill-rule="nonzero" fill="rgb(12.54902%, 12.54902%, 12.54902%)" fill-opacity="0.698039" stroke-width="1.03078" stroke-linecap="round" stroke-linejoin="round" stroke="rgb(12.54902%, 12.54902%, 12.54902%)" stroke-opacity="0.698039" stroke-miterlimit="10" d="M 331.867188 168.5625 C 331.867188 172.09375 326.570312 172.09375 326.570312 168.5625 C 326.570312 165.027344 331.867188 165.027344 331.867188 168.5625 "/>
<path fill-rule="nonzero" fill="rgb(12.54902%, 12.54902%, 12.54902%)" fill-opacity="0.698039" stroke-width="1.03078" stroke-linecap="round" stroke-linejoin="round" stroke="rgb(12.54902%, 12.54902%, 12.54902%)" stroke-opacity="0.698039" stroke-miterlimit="10" d="M 299.046875 164.953125 C 299.046875 168.484375 293.75 168.484375 293.75 164.953125 C 293.75 161.417969 299.046875 161.417969 299.046875 164.953125 "/>
<path fill-rule="nonzero" fill="rgb(12.54902%, 12.54902%, 12.54902%)" fill-opacity="0.698039" stroke-width="1.03078" stroke-linecap="round" stroke-linejoin="round" stroke="rgb(12.54902%, 12.54902%, 12.54902%)" stroke-opacity="0.698039" stroke-miterlimit="10" d="M 279.355469 85.558594 C 279.355469 89.089844 274.058594 89.089844 274.058594 85.558594 C 274.058594 82.027344 279.355469 82.027344 279.355469 85.558594 "/>
<path fill-rule="nonzero" fill="rgb(12.54902%, 12.54902%, 12.54902%)" fill-opacity="0.698039" stroke-width="1.03078" stroke-linecap="round" stroke-linejoin="round" stroke="rgb(12.54902%, 12.54902%, 12.54902%)" stroke-opacity="0.698039" stroke-miterlimit="10" d="M 390.941406 120.746094 C 390.941406 124.277344 385.644531 124.277344 385.644531 120.746094 C 385.644531 117.210938 390.941406 117.210938 390.941406 120.746094 "/>
<path fill-rule="nonzero" fill="rgb(12.54902%, 12.54902%, 12.54902%)" fill-opacity="0.698039" stroke-width="1.03078" stroke-linecap="round" stroke-linejoin="round" stroke="rgb(12.54902%, 12.54902%, 12.54902%)" stroke-opacity="0.698039" stroke-miterlimit="10" d="M 204.238281 187.734375 C 204.238281 191.265625 198.9375 191.265625 198.9375 187.734375 C 198.9375 184.199219 204.238281 184.199219 204.238281 187.734375 "/>
<path fill-rule="nonzero" fill="rgb(12.54902%, 12.54902%, 12.54902%)" fill-opacity="0.698039" stroke-width="1.03078" stroke-linecap="round" stroke-linejoin="round" stroke="rgb(12.54902%, 12.54902%, 12.54902%)" stroke-opacity="0.698039" stroke-miterlimit="10" d="M 298.320312 128.640625 C 298.320312 132.171875 293.019531 132.171875 293.019531 128.640625 C 293.019531 125.105469 298.320312 125.105469 298.320312 128.640625 "/>
<path fill-rule="nonzero" fill="rgb(12.54902%, 12.54902%, 12.54902%)" fill-opacity="0.698039" stroke-width="1.03078" stroke-linecap="round" stroke-linejoin="round" stroke="rgb(12.54902%, 12.54902%, 12.54902%)" stroke-opacity="0.698039" stroke-miterlimit="10" d="M 285.921875 150.066406 C 285.921875 153.597656 280.621094 153.597656 280.621094 150.066406 C 280.621094 146.535156 285.921875 146.535156 285.921875 150.066406 "/>
<path fill-rule="nonzero" fill="rgb(12.54902%, 12.54902%, 12.54902%)" fill-opacity="0.698039" stroke-width="1.03078" stroke-linecap="round" stroke-linejoin="round" stroke="rgb(12.54902%, 12.54902%, 12.54902%)" stroke-opacity="0.698039" stroke-miterlimit="10" d="M 164.125 219.984375 C 164.125 223.519531 158.824219 223.519531 158.824219 219.984375 C 158.824219 216.453125 164.125 216.453125 164.125 219.984375 "/>
<path fill-rule="nonzero" fill="rgb(12.54902%, 12.54902%, 12.54902%)" fill-opacity="0.698039" stroke-width="1.03078" stroke-linecap="round" stroke-linejoin="round" stroke="rgb(12.54902%, 12.54902%, 12.54902%)" stroke-opacity="0.698039" stroke-miterlimit="10" d="M 302.695312 122.773438 C 302.695312 126.308594 297.398438 126.308594 297.398438 122.773438 C 297.398438 119.242188 302.695312 119.242188 302.695312 122.773438 "/>
<path fill-rule="nonzero" fill="rgb(12.54902%, 12.54902%, 12.54902%)" fill-opacity="0.698039" stroke-width="1.03078" stroke-linecap="round" stroke-linejoin="round" stroke="rgb(12.54902%, 12.54902%, 12.54902%)" stroke-opacity="0.698039" stroke-miterlimit="10" d="M 235.597656 150.292969 C 235.597656 153.824219 230.300781 153.824219 230.300781 150.292969 C 230.300781 146.757812 235.597656 146.757812 235.597656 150.292969 "/>
<path fill-rule="nonzero" fill="rgb(12.54902%, 12.54902%, 12.54902%)" fill-opacity="0.698039" stroke-width="1.03078" stroke-linecap="round" stroke-linejoin="round" stroke="rgb(12.54902%, 12.54902%, 12.54902%)" stroke-opacity="0.698039" stroke-miterlimit="10" d="M 307.070312 152.773438 C 307.070312 156.304688 301.773438 156.304688 301.773438 152.773438 C 301.773438 149.238281 307.070312 149.238281 307.070312 152.773438 "/>
<path fill-rule="nonzero" fill="rgb(12.54902%, 12.54902%, 12.54902%)" fill-opacity="0.698039" stroke-width="1.03078" stroke-linecap="round" stroke-linejoin="round" stroke="rgb(12.54902%, 12.54902%, 12.54902%)" stroke-opacity="0.698039" stroke-miterlimit="10" d="M 359.582031 95.933594 C 359.582031 99.464844 354.285156 99.464844 354.285156 95.933594 C 354.285156 92.402344 359.582031 92.402344 359.582031 95.933594 "/>
<path fill-rule="nonzero" fill="rgb(12.54902%, 12.54902%, 12.54902%)" fill-opacity="0.698039" stroke-width="1.03078" stroke-linecap="round" stroke-linejoin="round" stroke="rgb(12.54902%, 12.54902%, 12.54902%)" stroke-opacity="0.698039" stroke-miterlimit="10" d="M 126.199219 170.367188 C 126.199219 173.898438 120.902344 173.898438 120.902344 170.367188 C 120.902344 166.832031 126.199219 166.832031 126.199219 170.367188 "/>
<path fill-rule="nonzero" fill="rgb(12.54902%, 12.54902%, 12.54902%)" fill-opacity="0.698039" stroke-width="1.03078" stroke-linecap="round" stroke-linejoin="round" stroke="rgb(12.54902%, 12.54902%, 12.54902%)" stroke-opacity="0.698039" stroke-miterlimit="10" d="M 301.238281 101.574219 C 301.238281 105.105469 295.9375 105.105469 295.9375 101.574219 C 295.9375 98.039062 301.238281 98.039062 301.238281 101.574219 "/>
<path fill-rule="nonzero" fill="rgb(12.54902%, 12.54902%, 12.54902%)" fill-opacity="0.698039" stroke-width="1.03078" stroke-linecap="round" stroke-linejoin="round" stroke="rgb(12.54902%, 12.54902%, 12.54902%)" stroke-opacity="0.698039" stroke-miterlimit="10" d="M 123.28125 162.472656 C 123.28125 166.003906 117.984375 166.003906 117.984375 162.472656 C 117.984375 158.9375 123.28125 158.9375 123.28125 162.472656 "/>
<path fill-rule="nonzero" fill="rgb(12.54902%, 12.54902%, 12.54902%)" fill-opacity="0.698039" stroke-width="1.03078" stroke-linecap="round" stroke-linejoin="round" stroke="rgb(12.54902%, 12.54902%, 12.54902%)" stroke-opacity="0.698039" stroke-miterlimit="10" d="M 246.539062 115.105469 C 246.539062 118.636719 241.238281 118.636719 241.238281 115.105469 C 241.238281 111.574219 246.539062 111.574219 246.539062 115.105469 "/>
<path fill-rule="nonzero" fill="rgb(12.54902%, 12.54902%, 12.54902%)" fill-opacity="0.698039" stroke-width="1.03078" stroke-linecap="round" stroke-linejoin="round" stroke="rgb(12.54902%, 12.54902%, 12.54902%)" stroke-opacity="0.698039" stroke-miterlimit="10" d="M 353.746094 147.8125 C 353.746094 151.34375 348.449219 151.34375 348.449219 147.8125 C 348.449219 144.277344 353.746094 144.277344 353.746094 147.8125 "/>
<path fill-rule="nonzero" fill="rgb(12.54902%, 12.54902%, 12.54902%)" fill-opacity="0.698039" stroke-width="1.03078" stroke-linecap="round" stroke-linejoin="round" stroke="rgb(12.54902%, 12.54902%, 12.54902%)" stroke-opacity="0.698039" stroke-miterlimit="10" d="M 283.734375 118.714844 C 283.734375 122.246094 278.433594 122.246094 278.433594 118.714844 C 278.433594 115.183594 283.734375 115.183594 283.734375 118.714844 "/>
<path fill-rule="nonzero" fill="rgb(12.54902%, 12.54902%, 12.54902%)" fill-opacity="0.698039" stroke-width="1.03078" stroke-linecap="round" stroke-linejoin="round" stroke="rgb(12.54902%, 12.54902%, 12.54902%)" stroke-opacity="0.698039" stroke-miterlimit="10" d="M 347.183594 124.804688 C 347.183594 128.335938 341.886719 128.335938 341.886719 124.804688 C 341.886719 121.273438 347.183594 121.273438 347.183594 124.804688 "/>
<path fill-rule="nonzero" fill="rgb(12.54902%, 12.54902%, 12.54902%)" fill-opacity="0.698039" stroke-width="1.03078" stroke-linecap="round" stroke-linejoin="round" stroke="rgb(12.54902%, 12.54902%, 12.54902%)" stroke-opacity="0.698039" stroke-miterlimit="10" d="M 226.117188 166.980469 C 226.117188 170.515625 220.816406 170.515625 220.816406 166.980469 C 220.816406 163.449219 226.117188 163.449219 226.117188 166.980469 "/>
<path fill-rule="nonzero" fill="rgb(12.54902%, 12.54902%, 12.54902%)" fill-opacity="0.698039" stroke-width="1.03078" stroke-linecap="round" stroke-linejoin="round" stroke="rgb(12.54902%, 12.54902%, 12.54902%)" stroke-opacity="0.698039" stroke-miterlimit="10" d="M 273.523438 104.730469 C 273.523438 108.261719 268.222656 108.261719 268.222656 104.730469 C 268.222656 101.199219 273.523438 101.199219 273.523438 104.730469 "/>
<path fill-rule="nonzero" fill="rgb(12.54902%, 12.54902%, 12.54902%)" fill-opacity="0.698039" stroke-width="1.03078" stroke-linecap="round" stroke-linejoin="round" stroke="rgb(12.54902%, 12.54902%, 12.54902%)" stroke-opacity="0.698039" stroke-miterlimit="10" d="M 361.476562 92.550781 C 361.476562 96.082031 356.179688 96.082031 356.179688 92.550781 C 356.179688 89.019531 361.476562 89.019531 361.476562 92.550781 "/>
<path fill-rule="nonzero" fill="rgb(12.54902%, 12.54902%, 12.54902%)" fill-opacity="0.698039" stroke-width="1.03078" stroke-linecap="round" stroke-linejoin="round" stroke="rgb(12.54902%, 12.54902%, 12.54902%)" stroke-opacity="0.698039" stroke-miterlimit="10" d="M 236.328125 152.773438 C 236.328125 156.304688 231.027344 156.304688 231.027344 152.773438 C 231.027344 149.238281 236.328125 149.238281 236.328125 152.773438 "/>
<path fill-rule="nonzero" fill="rgb(12.54902%, 12.54902%, 12.54902%)" fill-opacity="0.698039" stroke-width="1.03078" stroke-linecap="round" stroke-linejoin="round" stroke="rgb(12.54902%, 12.54902%, 12.54902%)" stroke-opacity="0.698039" stroke-miterlimit="10" d="M 380.003906 114.429688 C 380.003906 117.960938 374.703125 117.960938 374.703125 114.429688 C 374.703125 110.898438 380.003906 110.898438 380.003906 114.429688 "/>
<path fill-rule="nonzero" fill="rgb(12.54902%, 12.54902%, 12.54902%)" fill-opacity="0.698039" stroke-width="1.03078" stroke-linecap="round" stroke-linejoin="round" stroke="rgb(12.54902%, 12.54902%, 12.54902%)" stroke-opacity="0.698039" stroke-miterlimit="10" d="M 353.746094 106.984375 C 353.746094 110.519531 348.449219 110.519531 348.449219 106.984375 C 348.449219 103.453125 353.746094 103.453125 353.746094 106.984375 "/>
<path fill-rule="nonzero" fill="rgb(12.54902%, 12.54902%, 12.54902%)" fill-opacity="0.698039" stroke-width="1.03078" stroke-linecap="round" stroke-linejoin="round" stroke="rgb(12.54902%, 12.54902%, 12.54902%)" stroke-opacity="0.698039" stroke-miterlimit="10" d="M 222.46875 127.960938 C 222.46875 131.496094 217.171875 131.496094 217.171875 127.960938 C 217.171875 124.429688 222.46875 124.429688 222.46875 127.960938 "/>
<path fill-rule="nonzero" fill="rgb(12.54902%, 12.54902%, 12.54902%)" fill-opacity="0.698039" stroke-width="1.03078" stroke-linecap="round" stroke-linejoin="round" stroke="rgb(12.54902%, 12.54902%, 12.54902%)" stroke-opacity="0.698039" stroke-miterlimit="10" d="M 162.667969 168.109375 C 162.667969 171.640625 157.367188 171.640625 157.367188 168.109375 C 157.367188 164.578125 162.667969 164.578125 162.667969 168.109375 "/>
<path fill-rule="nonzero" fill="rgb(12.54902%, 12.54902%, 12.54902%)" fill-opacity="0.698039" stroke-width="1.03078" stroke-linecap="round" stroke-linejoin="round" stroke="rgb(12.54902%, 12.54902%, 12.54902%)" stroke-opacity="0.698039" stroke-miterlimit="10" d="M 258.207031 161.570312 C 258.207031 165.101562 252.90625 165.101562 252.90625 161.570312 C 252.90625 158.035156 258.207031 158.035156 258.207031 161.570312 "/>
<path fill-rule="nonzero" fill="rgb(12.54902%, 12.54902%, 12.54902%)" fill-opacity="0.698039" stroke-width="1.03078" stroke-linecap="round" stroke-linejoin="round" stroke="rgb(12.54902%, 12.54902%, 12.54902%)" stroke-opacity="0.698039" stroke-miterlimit="10" d="M 193.296875 195.175781 C 193.296875 198.707031 188 198.707031 188 195.175781 C 188 191.644531 193.296875 191.644531 193.296875 195.175781 "/>
<g fill="rgb(0%, 0%, 0%)" fill-opacity="1">
<use xlink:href="#glyph-0-1" x="27.957031" y="260.633789"/>
<use xlink:href="#glyph-0-2" x="35.957031" y="260.633789"/>
<use xlink:href="#glyph-0-3" x="43.957031" y="260.633789"/>
<use xlink:href="#glyph-0-2" x="47.957031" y="260.633789"/>
</g>
<g fill="rgb(0%, 0%, 0%)" fill-opacity="1">
<use xlink:href="#glyph-0-1" x="27.957031" y="204.24707"/>
<use xlink:href="#glyph-0-4" x="35.957031" y="204.24707"/>
<use xlink:href="#glyph-0-3" x="43.957031" y="204.24707"/>
<use xlink:href="#glyph-0-1" x="47.957031" y="204.24707"/>
</g>
<g fill="rgb(0%, 0%, 0%)" fill-opacity="1">
<use xlink:href="#glyph-0-1" x="27.957031" y="147.860352"/>
<use xlink:href="#glyph-0-1" x="35.957031" y="147.860352"/>
<use xlink:href="#glyph-0-3" x="43.957031" y="147.860352"/>
<use xlink:href="#glyph-0-2" x="47.957031" y="147.860352"/>
</g>
<g fill="rgb(0%, 0%, 0%)" fill-opacity="1">
<use xlink:href="#glyph-0-1" x="27.957031" y="91.473633"/>
<use xlink:href="#glyph-0-5" x="35.957031" y="91.473633"/>
<use xlink:href="#glyph-0-3" x="43.957031" y="91.473633"/>
<use xlink:href="#glyph-0-1" x="47.957031" y="91.473633"/>
</g>
<g fill="rgb(0%, 0%, 0%)" fill-opacity="1">
<use xlink:href="#glyph-0-6" x="27.957031" y="35.083008"/>
<use xlink:href="#glyph-0-2" x="35.957031" y="35.083008"/>
<use xlink:href="#glyph-0-3" x="43.957031" y="35.083008"/>
<use xlink:href="#glyph-0-2" x="47.957031" y="35.083008"/>
</g>
<g fill="rgb(0%, 0%, 0%)" fill-opacity="1">
<use xlink:href="#glyph-0-6" x="95.128906" y="291.602539"/>
<use xlink:href="#glyph-0-2" x="103.128906" y="291.602539"/>
</g>
<g fill="rgb(0%, 0%, 0%)" fill-opacity="1">
<use xlink:href="#glyph-0-6" x="168.0625" y="291.602539"/>
<use xlink:href="#glyph-0-1" x="176.0625" y="291.602539"/>
</g>
<g fill="rgb(0%, 0%, 0%)" fill-opacity="1">
<use xlink:href="#glyph-0-5" x="240.992188" y="291.602539"/>
<use xlink:href="#glyph-0-2" x="248.992188" y="291.602539"/>
</g>
<g fill="rgb(0%, 0%, 0%)" fill-opacity="1">
<use xlink:href="#glyph-0-5" x="313.925781" y="291.602539"/>
<use xlink:href="#glyph-0-1" x="321.925781" y="291.602539"/>
</g>
<g fill="rgb(0%, 0%, 0%)" fill-opacity="1">
<use xlink:href="#glyph-0-7" x="386.855469" y="291.602539"/>
<use xlink:href="#glyph-0-2" x="394.855469" y="291.602539"/>
</g>
<g fill="rgb(0%, 0%, 0%)" fill-opacity="1">
<use xlink:href="#glyph-1-1" x="191.699219" y="311.351562"/>
<use xlink:href="#glyph-1-2" x="200.699219" y="311.351562"/>
<use xlink:href="#glyph-1-3" x="209.699219" y="311.351562"/>
<use xlink:href="#glyph-1-4" x="218.699219" y="311.351562"/>
<use xlink:href="#glyph-1-5" x="226.699219" y="311.351562"/>
<use xlink:href="#glyph-1-6" x="230.699219" y="311.351562"/>
<use xlink:href="#glyph-1-7" x="243.699219" y="311.351562"/>
<use xlink:href="#glyph-1-8" x="252.699219" y="311.351562"/>
<use xlink:href="#glyph-1-8" x="260.699219" y="311.351562"/>
<use xlink:href="#glyph-1-5" x="268.699219" y="311.351562"/>
<use xlink:href="#glyph-1-9" x="272.699219" y="311.351562"/>
<use xlink:href="#glyph-1-10" x="277.699219" y="311.351562"/>
<use xlink:href="#glyph-1-11" x="286.699219" y="311.351562"/>
</g>
<g fill="rgb(0%, 0%, 0%)" fill-opacity="1">
<use xlink:href="#glyph-2-1" x="19.289062" y="205.300781"/>
<use xlink:href="#glyph-2-2" x="19.289063" y="196.300781"/>
<use xlink:href="#glyph-2-3" x="19.289063" y="187.300781"/>
<use xlink:href="#glyph-2-4" x="19.289063" y="178.300781"/>
<use xlink:href="#glyph-2-5" x="19.289063" y="169.300781"/>
<use xlink:href="#glyph-2-6" x="19.289063" y="165.300781"/>
<use xlink:href="#glyph-2-2" x="19.289063" y="161.300781"/>
<use xlink:href="#glyph-2-7" x="19.289063" y="152.300781"/>
<use xlink:href="#glyph-2-8" x="19.289063" y="143.300781"/>
<use xlink:href="#glyph-2-9" x="19.289063" y="134.300781"/>
<use xlink:href="#glyph-2-1" x="19.289063" y="130.300781"/>
<use xlink:href="#glyph-2-5" x="19.289063" y="121.300781"/>
<use xlink:href="#glyph-2-10" x="19.289063" y="117.300781"/>
<use xlink:href="#glyph-2-11" x="19.289063" y="112.300781"/>
<use xlink:href="#glyph-2-11" x="19.289063" y="99.300781"/>
<use xlink:href="#glyph-2-12" x="19.289063" y="86.300781"/>
</g>
</svg>
